<?xml version="1.0" encoding="utf-8"?>
<!-- Generator: Adobe Illustrator 22.0.1, SVG Export Plug-In . SVG Version: 6.00 Build 0)  -->
<svg version="1.1" id="Layer_1" xmlns="http://www.w3.org/2000/svg" xmlns:xlink="http://www.w3.org/1999/xlink" x="0px" y="0px"
	 viewBox="0 0 218.3 279.3" style="enable-background:new 0 0 218.3 279.3;" xml:space="preserve">
<style type="text/css">
	.st0{display:none;}
	.st1{display:inline;fill:#F9674F;}
	.st2{display:inline;}
	.st3{fill:#FF6441;}
	.st4{fill:#D7D7D7;}
</style>
<g id="Layer_1_1_" class="st0">
	<circle class="st1" cx="160.5" cy="236.8" r="6.5"/>
	<g id="dMTy2W.tif" class="st2">
		<g>
			<g>
				<path class="st3" d="M-125.6-20.5c1.6-13.6,4.5-26.8,11.4-38.7c2-3.5,4.5-6.7,7.6-9.3c5.4-4.5,11.9-5.3,17.4-2.2
					c5.8,3.3,6,8.8,5.2,14.3c-1.1,7.9-2.7,15.7-3.9,23.5c-2.1,14,0.1,27.4,6.1,40.2C-73.1,25.6-61,41.1-44.4,53
					c7.2,5.1,13.8,5.7,21.6,0.7c17.5-11.2,35.1-22.3,53.9-31.3c25.4-12.1,52-15.8,79.8-13.3c20.2,1.8,40.2,5.3,60.4,7
					c8.2,0.7,15.4-0.7,22.3-5.9c16-11.9,33.7-19.6,54.1-19.8c13.9-0.2,26.2,4.9,38.1,11.3c7.6,4.1,14.9,8.6,21.4,14.1
					C321.6,28,336.9,39,352,50.2c3.9,2.9,7.6,6.3,10.3,10.4c2.7,4.1,1.6,6.7-3.1,7.8c-6.3,1.3-12.4-0.1-18.6-0.8
					c-4.5-0.5-9.1-1-13.6-1.4c-4-0.4-6.8,1.4-8.4,5.1c-3.3,7.6-6.7,15.1-10.2,22.7c-1.1,2.3-2.5,4.5-3.9,6.7
					c-1.8,2.8-4.3,4.4-7.7,5.3c-8.7,2.1-16.1,6-18.4,15.7c-0.4,1.6-1.1,3.2-1.8,4.7c-3.1,7.3-4.9,8.4-12.7,7.2
					c-2.8-0.4-5.6-0.5-8.5-0.4c-11.4,0.4-20-4.8-26.8-13.6c-0.5-0.7-1-1.4-1.9-2.8c0.5,5.9,0.6,10.9,0.1,16
					c-0.4,4.3-1.4,8.4-4.4,11.5c-8,8.1-8.1,17.5-4.9,27.4c5.8,18.2,16.2,33.7,29.7,47.1c6.2,6.1,13,11.7,19.5,17.6
					c-4.1,9.3-3.7,18.3,1.6,27c-8.1,7.5-17.9,9-28.4,7.5c-3.9-0.6-7.5-2.6-11.5-2.4c-7.4,0.5-10.8-2-9.5-9.4
					c1.2-6.7-1.3-11-5.3-15.3c-1.1-1.2-2.1-2.5-3-3.8c-0.8-1.2-1.8-1.5-3.1-1.5c-6.6,0.1-13.2-0.1-19.8-0.7
					c-16-1.5-19.6-5.1-20.9-21.1c-0.2-2-0.2-4.2-1.6-5.6c-3.2-3.1-4-7.3-5.5-11.1c-3.4-8.9-6.7-17.9-12.9-25.4
					c-4.1-5-9.2-7-15.7-5.5c-13,3-22.2,11.3-30,21.6c-1.4,1.8,0.5,1.4,1.2,1.4c8.1,0.8,14.1,4.9,18.1,11.7
					c3.6,6.1,1.4,12.1-5.2,14.7c-2.7,1.1-5.7,1.2-8.8,1.6c2.5,2.6,4.8,5,6.1,8.1c1.9,4.7-0.2,9-5.1,10c-1.6,0.4-3,1-4.2,2.1
					c-4.9,4.5-10.7,5.4-17,4.1c-2-0.4-4-0.9-6,0.1c-2.3,1.1-4.7,1-6.7-0.3c-8.9-5.7-18.8-6.5-29-7.1c-11.1-0.7-22.2-2.3-32.7-6.4
					c-7.7-2.9-12-8.3-12.9-16.5c-0.4-3.9-0.6-7.8-0.3-11.8c0.6-7.7,1.2-15.3,1.7-23c0.4-5.1-1.7-8.8-6.4-11c-5.6-2.6-11-5.4-16.6-8
					c-14.9-6.8-24.3-18.3-29.3-33.7c-2.3-7-3.7-14.2-4.8-21.4c-1.1-7.8-4.2-13.9-10.8-18.8c-10.3-7.6-19.3-16.7-27.7-26.4
					c-15.2-17.7-27.2-36.9-30.4-60.6c0-0.7,0-1.4,0.1-2.1c0-1.3,0.5-2.7-0.5-3.8c0-2.9,0-5.7,0-8.6c1-1.2,0.5-2.5,0.5-3.8
					C-125.5-19.1-125.5-19.8-125.6-20.5z"/>
			</g>
			<path class="st3" d="M267.4,285.3"/>
		</g>
	</g>
</g>
<g id="Layer_3">
</g>
<g id="Layer_2_1_">
	<g id="rQAfHT.tif">
		<g>
			<path class="st4" d="M40.7,21c24.5,2.2,44.9,1.6,55.7-16.7c0.8,0.8,1.6,1.5,2.4,2.3c0.3,1.5,1,3,0.7,4.5
				c-3.6,16.7-7.3,33.3-10.8,50c-0.5,2.4-0.9,5.3,0.4,7.5c10.9,18.8,14.5,38.1,12.8,58.6c-0.8,9.4,6,18.9,6.8,28.5
				c1.2,14.6,0.5,29.3-0.1,43.9c-0.3,8.1,4.5,10.3,14.7,10.3c20.7,0.1,41.7-0.4,62,2.1c9.5,1.2,20,7.4,25.7,13.6
				c6.4,7,2.2,15.8-6.2,21.9c-3.6,2.6-8.9,4.2-13.7,5.8c-5.7,1.9-11.7,3.3-18.9,5.2c2.6,2.1,3.4,3.1,4.6,3.7c6,2.7,13.1,5,9.7,11.7
				c-2.3,4.6-16.1,6.9-24.1,4.4c-7.5-2.3-14.2-11.7-11.2-17.2c4.2-7.7,8.8-15,20.5-18.7c6.4-2,11.1-6.9,16.6-10.4
				c-0.5-1.3-1.1-2.6-1.6-3.9c-11.9-0.5-23.8-2-35.6-1.4c-31.1,1.5-62,5-93.1,5.6c-12.7,0.2-26.4-3.7-38.2-8
				C13.8,222,8,215.1,7.4,210c-2.5-24-5.7-48.1,5.5-71.6c2.3-4.9,1.5-10.9,0.7-16.2c-2.8-16.9,4.8-32.2,11.2-47.9
				c1.8-4.3,2.8-9,2.4-13.4c-1.4-15.4-3.7-30.8-5.6-46.2c-0.3-2.4,0-4.8,0-9.5C30.2,12.4,36.6,17.6,40.7,21z"/>
		</g>
	</g>
</g>
</svg>
