<?xml version="1.0" encoding="utf-8"?>
<!-- Generator: Adobe Illustrator 22.0.1, SVG Export Plug-In . SVG Version: 6.00 Build 0)  -->
<svg version="1.1"
	 id="svg2" inkscape:export-filename="/home/marcel/Desktop/personal/tagjam18/wallpaper1.png" inkscape:export-xdpi="90" inkscape:export-ydpi="90" inkscape:version="0.48.4 r9939" sodipodi:docname="wallpaper1.svg" xmlns:cc="http://creativecommons.org/ns#" xmlns:dc="http://purl.org/dc/elements/1.1/" xmlns:inkscape="http://www.inkscape.org/namespaces/inkscape" xmlns:rdf="http://www.w3.org/1999/02/22-rdf-syntax-ns#" xmlns:sodipodi="http://sodipodi.sourceforge.net/DTD/sodipodi-0.dtd" xmlns:svg="http://www.w3.org/2000/svg"
	 xmlns="http://www.w3.org/2000/svg" xmlns:xlink="http://www.w3.org/1999/xlink" x="0px" y="0px" viewBox="0 0 1920 1080"
	 style="enable-background:new 0 0 1920 1080;" xml:space="preserve">
<style type="text/css">
	.st0{fill:#000202;}
	.st1{fill:#000002;}
	.st2{fill:#B7D900;stroke:#000000;stroke-miterlimit:10;}
	.st3{fill:#CD001B;stroke:#000000;stroke-miterlimit:10;}
	.st4{opacity:0.19;fill:#FFA0B9;}
	.st5{font-family:'Arial-BoldMT';}
	.st6{font-size:97.966px;}
</style>
<g id="layer2" transform="translate(0,312)" inkscape:groupmode="layer" inkscape:label="Robot">
	<g id="g3862" transform="matrix(1.1989209,0,0,1.1989209,356.1406,-258.93339)">
		<path id="path3799" inkscape:connector-curvature="0" sodipodi:nodetypes="ccsc" class="st0" d="M29.7,178.9
			c0,0,120.1-60.4,139.5-79.8c0,0-38.2-60-62.3-58.4C75.8,42.7-10.1,82,29.7,178.9L29.7,178.9z"/>
		<path id="path3801" inkscape:connector-curvature="0" sodipodi:nodetypes="csssc" class="st0" d="M32.3,176.1
			c66.1-4.1,152.5-52.8,157.7-50.4c13.5,6.4-5,96.4-12.2,103.4c-6.8,6.6-121,10.8-135.5,1.6C32.9,224.7,32.3,176.1,32.3,176.1
			L32.3,176.1z"/>
		
			<path id="path3803" sodipodi:cx="251.41574" sodipodi:cy="251.57344" sodipodi:rx="4.8420811" sodipodi:ry="3.9109116" sodipodi:type="arc" class="st0" d="
			M43.8,175.8c0.7,7.5-4.2,14.2-11.1,14.9c-6.8,0.7-13-4.8-13.7-12.3l0,0c-0.7-7.5,4.2-14.2,11.1-14.9
			C36.9,162.8,43.1,168.3,43.8,175.8L43.8,175.8z"/>
		<path id="path3809" inkscape:connector-curvature="0" sodipodi:nodetypes="cccc" class="st0" d="M26.8,87.8L-9.8,50.3l40.4,31.8
			L26.8,87.8z"/>
		<path id="path3811" inkscape:connector-curvature="0" sodipodi:nodetypes="ccccc" class="st0" d="M55.1,236.4l-8.4,34.3
			c0,0,20.8-7.7,51.6-11.9l-1.7-16.7C96.7,242.1,68.6,240.9,55.1,236.4L55.1,236.4z"/>
	</g>
	<path id="path3813" inkscape:connector-curvature="0" sodipodi:nodetypes="ccccccccccccccccccc" class="st0" d="M592.9,60.9
		C504,41.2,388.4,68.2,277.4,136c-12.4,67.2,4.3,134.4,19.9,171.7c27.3,19.1,71.3,47.7,92.7,49.8c100-4.9,194.1-52.1,194.1-52.1
		c22.9-7.4,50.6-55,67.4-87.6c-3.6-45.4-18.4-108.5-56.9-156.9C594,60.9,593.5,60.9,592.9,60.9L592.9,60.9z M603.7,61
		c27.3,36.4,46.3,93.1,52.4,147.5c6.4-12.9,10.3-21.9,10.3-21.9S648.8,71.1,612,61.3C609.3,61.2,606.5,61.1,603.7,61L603.7,61z
		 M269.9,139.7c-3.1,1.5-6.2,3.1-9.3,4.6c-17.6,52.1,13.2,146.5,13.2,146.5s5.8,4.3,14.8,10.8C270.4,251.4,262.6,189.5,269.9,139.7
		L269.9,139.7z"/>
	<path id="path3815" inkscape:connector-curvature="0" class="st0" d="M589.9,311.7c0,0-87.3,53.5-194.9,55.2
		c-0.4,3.4,1.6,10,5.2,18.6c41.6-1.1,120.7-14.8,189.4-55.2C589.8,324.1,589.9,317.9,589.9,311.7L589.9,311.7z M588.5,350.6
		c-82.5,41.2-144.3,50.5-180.6,51.6c2.5,5.1,5.3,10.5,8.3,16.1c40-2,108.2-14.6,170.5-47.7C587.4,364.1,588,357.4,588.5,350.6z
		 M584.1,390.7C513.8,423.6,459.8,433,425.2,435c3.2,5.7,6.5,11.4,9.8,17c38-3.6,93.3-15.3,145.9-40.9
		C582,404.5,583.1,397.7,584.1,390.7L584.1,390.7z M577.1,430.9c-55.5,24.5-100.2,34.1-132.3,37.4c3.4,5.6,6.8,10.8,9.8,15.6
		c31.9-3.5,74.5-12.4,117.2-29.9C573.5,447.4,575.3,439.7,577.1,430.9L577.1,430.9z M565.5,474.2c-40.2,15.4-73.7,22.6-99.8,25.9
		c2.6,3.4,4.6,5.6,5.6,6.1c9.7,4.6,86.6-21.2,93-30C564.7,475.8,565.1,475.1,565.5,474.2L565.5,474.2z"/>
	<path id="path3829" inkscape:connector-curvature="0" class="st0" d="M576.3,464.8c-36.9,24.7-118,32.8-118,32.8s-9.5,19.5-4,38.2
		c22.8,6.7,53,47.2,74.1,79.7c11.8,6.9,28.6-6,28.6-6c4.5-30.5,14.8-73.1,38.5-120.5C595.1,475.7,576.3,464.8,576.3,464.8
		L576.3,464.8z M538.2,502.3c10.5,0,19,8.6,19,19.1c0,10.5-8.5,19-19,19s-19-8.5-19-19C519.2,510.9,527.7,502.3,538.2,502.3z"/>
	
		<path id="path3838" sodipodi:cx="83.226341" sodipodi:cy="213.86008" sodipodi:rx="33.711933" sodipodi:ry="30.551441" sodipodi:type="arc" class="st0" d="
		M551.7,521.5c0,7.3-5.9,13.2-13.2,13.2s-13.2-5.9-13.2-13.2l0,0c0-7.3,5.9-13.2,13.2-13.2C545.8,508.2,551.7,514.2,551.7,521.5
		L551.7,521.5z"/>
	<path id="path3851" inkscape:connector-curvature="0" sodipodi:nodetypes="acca" class="st0" d="M199.3,219.3
		c2.3,36.8,33.1,71.2,76.6,71.2c-8.6-40.3-25.8-80.8-15.5-146C212.6,137.2,197.2,185.8,199.3,219.3L199.3,219.3z"/>
	<path id="path3856" inkscape:connector-curvature="0" sodipodi:nodetypes="sccs" class="st0" d="M676.2,60
		c32.8,24,27.2,112.6-12.1,127.6c-9.6-42.6-20.5-73.9-50.5-124.7C635.4,45.7,649.5,40.5,676.2,60z"/>
	<path id="path3932" inkscape:connector-curvature="0" sodipodi:nodetypes="ccccc" class="st0" d="M451.9,547.1
		c28.1,10.2,69.8,76.9,69.8,76.9S486,730.6,490.8,783.9l-92.3-17.1C394.2,709.4,451.9,547.1,451.9,547.1z"/>
	<path id="path3934" inkscape:connector-curvature="0" sodipodi:nodetypes="ccccc" class="st0" d="M602.6,497.9
		c-15.3,23.8-35,87.9-35.8,108.9c16.2,10.2,60.3,121.3,55.6,174.6l80.9-7.7C707.6,716.3,622.8,508.1,602.6,497.9L602.6,497.9z"/>
	<path id="path3940" inkscape:connector-curvature="0" sodipodi:nodetypes="ccccc" class="st0" d="M226.8,196.2
		c-28.7,21.7-78.2,114.7-78.2,114.7l30.7,29c0,0,73.2-82.1,71.2-108.7L226.8,196.2z"/>
	
		<path id="path3942" sodipodi:cx="-80" sodipodi:cy="516.5" sodipodi:rx="21" sodipodi:ry="21.5" sodipodi:type="arc" class="st0" d="
		M189.4,345.5c0,23.5-16.8,42.6-37.6,42.6s-37.6-19.1-37.6-42.6s16.8-42.6,37.6-42.6S189.4,322,189.4,345.5z"/>
	<path id="path3944" inkscape:connector-curvature="0" sodipodi:nodetypes="ccccc" class="st0" d="M136.2,328
		c-16.6,26.9-57.4,178.4-57.4,178.4s28.3-7.5,40.2,25.3c4.9-6.9,43.5-131.6,48-175.9L136.2,328z"/>
	<path id="path3946" inkscape:connector-curvature="0" class="st0" d="M82.6,515.5c-18.2,0-32.9,16.7-32.9,37.3s14.7,37.3,32.9,37.3
		s32.9-16.7,32.9-37.3S100.8,515.5,82.6,515.5L82.6,515.5z M82.4,529.2c12.4,0,22.5,10.9,22.5,24.3s-10.1,24.3-22.5,24.3
		s-22.5-10.9-22.5-24.3S70,529.2,82.4,529.2z"/>
	
		<path id="rect3948" inkscape:connector-curvature="0" inkscape:transform-center-x="-1.3824849" inkscape:transform-center-y="7.6819288" sodipodi:nodetypes="ccccc" class="st0" d="
		M42.9,550.7c0.9,6.9-0.8,14.6,4.5,22.3l-23.3,30c-7-2.8-11.2-16.2-11.2-16.2L42.9,550.7z"/>
	
		<path id="path3954" inkscape:connector-curvature="0" inkscape:transform-center-x="-1.3824849" inkscape:transform-center-y="7.6819288" sodipodi:nodetypes="ccccc" class="st0" d="
		M48.8,576.3c3.5,6,4.4,9.3,10.1,14.1l-27.7,40.3c-7-2.8-11.2-16.2-11.2-16.2L48.8,576.3z"/>
	
		<path id="path3956" inkscape:connector-curvature="0" inkscape:transform-center-x="-1.3824849" inkscape:transform-center-y="7.6819288" sodipodi:nodetypes="ccccc" class="st0" d="
		M61.6,591.4c5.3,5.6,10.3,5.6,15.6,8.4l-28.5,43.1c-7-2.8-11.9-12.5-11.9-12.5L61.6,591.4z"/>
	
		<path id="path3958" inkscape:connector-curvature="0" inkscape:transform-center-x="-5.9702654" inkscape:transform-center-y="3.2323669" sodipodi:nodetypes="ccccc" class="st0" d="
		M93,595c7.3-0.9,12.7-7.8,18-10.5l7.7,42.4c-4.8,10.9-15.4,7.9-15.8,6.6L93,595z"/>
	<path id="path3992" inkscape:connector-curvature="0" sodipodi:nodetypes="ccccc" class="st0" d="M670,106.5
		c34.5-14.4,106.5-96.2,106.5-96.2l-25.1-38c0,0-94,64.1-98,91.9L670,106.5z"/>
	
		<path id="path3994" sodipodi:cx="-80" sodipodi:cy="516.5" sodipodi:rx="21" sodipodi:ry="21.5" sodipodi:type="arc" class="st0" d="
		M743.3-29.6C748-52.5,768.2-67,788.5-62s32.9,27.8,28.2,50.7s-24.9,37.4-45.1,32.4S738.6-6.6,743.3-29.6z"/>
	<path id="path3996" inkscape:connector-curvature="0" sodipodi:nodetypes="ccccc" class="st0" d="M800.1-12.4
		c27.7-17.1,133.9-144.9,134.7-152c-9-0.7-24.8,4.3-27.5-25.5c-7.8,4-101.6,94.7-125.2,134.8L800.1-12.4z"/>
	<path id="path3998" inkscape:connector-curvature="0" sodipodi:nodetypes="ssssssssss" class="st0" d="M954.1-243.7
		c-21,0-38,18.7-38,41.7s2.8,29.5,23.8,29.5s38-18.7,38-41.7S975.1-243.7,954.1-243.7z M953.8-228.3c14.4,0,11.8,0,11.8,15
		s-11.7,27.2-26,27.2c-14.4,0-11.7,0-11.7-15C927.8-216.1,939.4-228.3,953.8-228.3z"/>
	
		<path id="path4000" inkscape:connector-curvature="0" inkscape:transform-center-x="-8.2513151" inkscape:transform-center-y="-0.5476772" sodipodi:nodetypes="ccccc" class="st0" d="
		M944-250.6c7.2-0.4,13.2-4.5,23.9,0.6l25.4-35c-4.5-7.8-19.1-10-19.1-10L944-250.6z"/>
	
		<path id="path4002" inkscape:connector-curvature="0" inkscape:transform-center-x="0.2330699" inkscape:transform-center-y="-7.8643538" sodipodi:nodetypes="ccccc" class="st0" d="
		M975.7-244.2c1.8-1.3-7-7-16.5-7.4l45.4-48.5c7.5,4.5,10,20.1,10,20.1L975.7-244.2z"/>
	
		<path id="path4004" inkscape:connector-curvature="0" inkscape:transform-center-x="-7.6782251" inkscape:transform-center-y="1.4996423" sodipodi:nodetypes="ccccc" class="st0" d="
		M974.1-246.5c6.7,4,6.6,8,9.1,17l51.4-39.8c-2.8-8.7-12.8-15-12.8-15L974.1-246.5z"/>
	
		<path id="path4006" inkscape:connector-curvature="0" inkscape:transform-center-x="-7.2953862" inkscape:transform-center-y="-3.9922216" sodipodi:nodetypes="ccccc" class="st0" d="
		M970-176.5c5.7-6.7,8.8-8.1,10-15.3c0,0,16.8,5.6,35.5-1.9c6.3,11.8-4,18.5-5.4,18C996.3-171.4,970-176.5,970-176.5z"/>
</g>
<sodipodi:namedview  bordercolor="#666666" borderlayer="true" borderopacity="1.0" id="base" inkscape:current-layer="layer1" inkscape:cx="1574.0466" inkscape:cy="371.80025" inkscape:document-units="px" inkscape:guide-bbox="true" inkscape:pageopacity="0.0" inkscape:pageshadow="2" inkscape:window-height="876" inkscape:window-maximized="1" inkscape:window-width="1551" inkscape:window-x="49" inkscape:window-y="24" inkscape:zoom="0.21176375" pagecolor="#ffffff" showgrid="false" showguides="true" width="1024px">
	</sodipodi:namedview>
<g id="layer3" inkscape:groupmode="layer" inkscape:label="City">
	<polyline id="rect3871_1_" class="st1" points="215,927.9 215,1184.3 88.7,1184.3 	"/>
	<rect id="rect3873" x="255.2" y="864.4" class="st1" width="126.3" height="256.4"/>
	<polygon id="rect3875" class="st1" points="504.9,1048 585.2,992.3 585.2,1249.3 491.1,1249.3 	"/>
	<rect id="rect3877" x="-47.5" y="991.5" class="st1" width="95" height="157.2"/>
	<rect id="rect3879" x="207.9" y="992.6" class="st1" width="94.7" height="191.7"/>
	<polygon id="rect3881" class="st1" points="800.3,877.4 871.3,897.4 894.4,1134.5 800.3,1134.5 	"/>
	<rect id="rect3883" x="714.9" y="949.6" class="st1" width="134.3" height="199.3"/>
	<rect id="rect3885" x="927.8" y="785.3" class="st1" width="94.1" height="257.1"/>
	<rect id="rect3887" x="871.9" y="965.6" class="st1" width="94.8" height="181"/>
	<rect id="rect3889" x="1058.8" y="849.6" class="st1" width="78.3" height="220.5"/>
	<rect id="rect3891" x="996.9" y="980.6" class="st1" width="94.9" height="165.5"/>
	<rect id="rect3893" x="1200.5" y="829.4" class="st1" width="235.7" height="315.3"/>
	<rect id="rect3895" x="1095.1" y="977.9" class="st1" width="236.9" height="168.4"/>
	<rect id="rect3897" x="1480.5" y="812.1" class="st1" width="94.1" height="257.1"/>
	<rect id="rect3899" x="1420.3" y="965.7" class="st1" width="137.2" height="166.1"/>
	
		<path id="path3901" inkscape:connector-curvature="0" inkscape:transform-center-x="-0.080682564" inkscape:transform-center-y="-6.2013486" sodipodi:nodetypes="ccccc" class="st1" d="
		M1135.7,851.4l-37.6,0.1l-37.6,0.1c8.9-19.2,27.6-86.4,37.3-105C1108.6,766.1,1127.5,831.4,1135.7,851.4L1135.7,851.4z"/>
	<g id="g3914" transform="matrix(1.2057863,0,0,1.1989209,354.93848,65.05582)">
		
			<path id="path3903" inkscape:connector-curvature="0" inkscape:transform-center-x="-0.080682564" inkscape:transform-center-y="-6.2013486" sodipodi:nodetypes="ccccc" class="st1" d="
			M732.8,687.2l-31.4,0.1l15.6-18.8l15.6-18.8C732.5,649.7,732.6,686.7,732.8,687.2L732.8,687.2z"/>
		
			<path id="path3906" inkscape:connector-curvature="0" inkscape:transform-center-x="-0.080682564" inkscape:transform-center-y="-6.2013486" sodipodi:nodetypes="ccccc" class="st1" d="
			M773.8,640.6l-31.4,0.1l15.6-23.3l15.6-23.3C773.6,595.8,774,641.6,773.8,640.6L773.8,640.6z"/>
		
			<path id="path3908" inkscape:connector-curvature="0" inkscape:transform-center-x="-0.080682564" inkscape:transform-center-y="-6.2013486" sodipodi:nodetypes="ccccc" class="st1" d="
			M814.9,687.2l-31.4,0.1l15.6-18.8l15.6-18.8C814.6,649.7,814.7,686.7,814.9,687.2L814.9,687.2z"/>
		
			<path id="path3910" inkscape:connector-curvature="0" inkscape:transform-center-x="-0.080682564" inkscape:transform-center-y="-6.2013486" sodipodi:nodetypes="ccccc" class="st1" d="
			M856,687.2l-31.4,0.1l15.6-18.8l15.6-18.8C855.7,649.7,855.8,686.7,856,687.2L856,687.2z"/>
		
			<path id="path3912" inkscape:connector-curvature="0" inkscape:transform-center-x="-0.080682564" inkscape:transform-center-y="-6.2013486" sodipodi:nodetypes="ccccc" class="st1" d="
			M897,687.2l-31.4,0.1l15.6-18.8l15.6-18.8C896.8,649.7,896.9,686.7,897,687.2L897,687.2z"/>
	</g>
	<rect id="rect3922" x="937.7" y="642.4" class="st1" width="74.2" height="257.5"/>
	<rect id="rect3924" x="947.1" y="512.6" class="st1" width="55.5" height="258"/>
	<polygon id="rect3926" class="st1" points="978.1,499.8 981.9,387.7 976.8,612.3 972.9,612.3 	"/>
	<rect id="rect3928" x="1385.1" y="670.7" class="st1" width="26.5" height="259"/>
	<rect id="rect3930" x="1331.2" y="670.7" class="st1" width="26.5" height="259"/>
	
		<rect id="rect3998" x="1455.6" y="1090.5" transform="matrix(0.2248 -0.9744 0.9744 0.2248 119.5392 2425.3982)" class="st1" width="257.1" height="94.1"/>
	
		<rect id="rect4000" x="31.8" y="1006" transform="matrix(0.9744 -0.2248 0.2248 0.9744 -253.0199 46.7522)" class="st1" width="94.1" height="257.1"/>
</g>
<g>
	<g>
		
			<path id="path3805_8_" inkscape:transform-center-y="-1.7286243" sodipodi:cx="325.9093" sodipodi:cy="194.39963" sodipodi:rx="7.8218231" sodipodi:ry="14.153775" sodipodi:type="arc" class="st2" d="
			M496.7,161.2c3.4,7.4,3.5,15.2,0.2,17.4s-8.7-2.1-12.1-9.6c-3.4-7.4-3.5-15.2-0.2-17.4S493.3,153.8,496.7,161.2z"/>
		
			<path id="path3807_8_" sodipodi:cx="325.9093" sodipodi:cy="194.39963" sodipodi:rx="7.8218231" sodipodi:ry="14.153775" sodipodi:type="arc" class="st2" d="
			M519.8,147.7c3.6,6.8,4,14.1,0.9,16.4c-3.1,2.3-8.5-1.4-12.1-8.2s-4-14.1-0.9-16.4C510.9,137.2,516.3,140.9,519.8,147.7z"/>
		
			<path id="path3986_8_" sodipodi:cx="393.48148" sodipodi:cy="411.91769" sodipodi:rx="13.168724" sodipodi:ry="13.695474" sodipodi:type="arc" class="st3" d="
			M621.2,470.6c1.5,5.4-1.2,11-5.8,12.5c-4.7,1.5-9.6-1.6-11.1-6.9c-1.5-5.4,1.2-11,5.8-12.5C614.8,462.1,619.7,465.2,621.2,470.6z"
			/>
		
			<path id="path3988_8_" sodipodi:cx="393.48148" sodipodi:cy="411.91769" sodipodi:rx="13.168724" sodipodi:ry="13.695474" sodipodi:type="arc" class="st3" d="
			M626,495.8c1.1,4.2-0.9,8.6-4.6,9.8c-3.7,1.2-7.5-1.2-8.7-5.4c-1.1-4.2,0.9-8.6,4.6-9.8C621,489.2,624.9,491.6,626,495.8z"/>
		
			<path id="path3990_8_" sodipodi:cx="393.48148" sodipodi:cy="411.91769" sodipodi:rx="13.168724" sodipodi:ry="13.695474" sodipodi:type="arc" class="st3" d="
			M629.1,518.6c0.9,3.4-0.7,6.9-3.7,7.9c-2.9,1-6.1-1-7-4.4s0.7-6.9,3.7-7.9C625.1,513.2,628.2,515.2,629.1,518.6z"/>
		<text transform="matrix(0.8847 -0.2062 0.3939 0.9192 375.5351 548.8108)" class="st4 st5 st6">CSS</text>
	</g>
</g>
<polyline id="rect3871_2_" class="st1" points="339.6,759.9 339.6,1016.3 237.6,1019.7 "/>
<polygon id="rect3875_1_" class="st1" points="153.6,874.1 234,818.3 234,1075.4 139.9,1075.4 "/>
<rect id="rect3883_1_" x="1609.5" y="939.7" class="st1" width="134.3" height="199.3"/>
<rect id="rect3883_2_" x="1633.5" y="852" class="st1" width="86.5" height="199.3"/>
<polyline id="rect3897_1_" class="st1" points="1693.6,950.6 1787.7,950.6 1787.7,1207.7 1693.6,1207.7 "/>
<polyline id="rect3899_1_" class="st1" points="1633.5,1104.2 1770.6,1104.2 1770.6,1270.3 "/>
<polyline id="rect3998_1_" class="st1" points="1867.4,1128.8 1819.8,876.2 1912.3,858.8 1959.9,1111.4 "/>
<polyline id="rect3883_4_" class="st1" points="1822.7,1180.8 1822.7,981.5 1957,981.5 "/>
<rect id="rect3883_3_" x="1757.8" y="993.8" class="st1" width="86.5" height="199.3"/>
<rect id="rect3883_5_" x="1001.1" y="894.2" class="st1" width="86.5" height="199.3"/>
<rect id="rect3883_6_" x="738.8" y="759.1" class="st1" width="86.5" height="199.3"/>
<rect id="rect3883_7_" x="751.3" y="630.7" class="st1" width="61.5" height="199.3"/>
<path id="path3901_1_" inkscape:connector-curvature="0" inkscape:transform-center-x="-0.080682564" inkscape:transform-center-y="-6.2013486" sodipodi:nodetypes="ccccc" class="st1" d="
	M86.6,1078.3c8.9-19.2,27.6-86.4,37.3-105c10.8,19.5,29.7,84.8,37.9,104.8"/>
</svg>
