<?xml version="1.0" standalone="no"?>
<!DOCTYPE svg PUBLIC "-//W3C//DTD SVG 20010904//EN"
 "http://www.w3.org/TR/2001/REC-SVG-20010904/DTD/svg10.dtd">
<svg version="1.0" xmlns="http://www.w3.org/2000/svg"
 width="1280.000000pt" height="1280.000000pt" viewBox="0 0 1280.000000 1280.000000"
 preserveAspectRatio="xMidYMid meet">
<g transform="translate(0.000000,1280.000000) scale(0.100000,-0.100000)"
fill="#000000" stroke="none">
<path d="M4236 12108 c-3 -46 -11 -227 -17 -403 -14 -456 4 -751 62 -965 40
-151 104 -296 183 -420 65 -101 64 -97 31 -75 -254 166 -456 239 -775 276
-174 21 -1134 8 -1157 -15 -7 -7 134 -237 283 -461 172 -260 301 -412 464
-547 39 -32 43 -39 29 -48 -59 -35 -413 -303 -613 -462 l-21 -17 39 -33 c92
-77 390 -305 494 -377 l112 -79 -62 -50 c-117 -93 -246 -239 -382 -435 -73
-105 -346 -537 -346 -547 0 -13 88 -19 460 -31 771 -25 1091 33 1438 262 54
35 70 42 60 26 -108 -167 -160 -272 -209 -416 -82 -246 -106 -538 -90 -1056
11 -328 20 -485 28 -485 16 0 388 231 528 328 210 147 376 292 466 408 23 30
44 54 48 54 4 0 40 -46 81 -102 102 -143 402 -528 410 -528 12 0 333 414 440
568 l44 64 35 -44 c64 -80 225 -233 326 -309 131 -99 217 -157 470 -315 l210
-132 7 31 c3 17 12 211 19 431 15 499 2 732 -56 996 -10 46 46 -84 80 -185
152 -449 136 -1008 -46 -1636 l-31 -107 -51 14 c-81 20 -169 32 -342 44 -88 6
-248 25 -355 40 -259 39 -479 66 -680 85 -168 15 -473 35 -477 31 -8 -8 190
-240 302 -355 327 -336 623 -522 950 -597 56 -13 121 -18 216 -19 l136 0 -10
-28 c-17 -51 -202 -418 -287 -572 -471 -850 -1202 -1869 -1919 -2673 -56 -63
-101 -116 -101 -118 0 -18 626 463 880 676 441 371 895 825 1215 1215 463 564
804 1160 989 1728 23 70 45 125 48 122 3 -3 51 42 107 101 56 59 99 109 96
112 -3 3 36 27 87 54 118 62 185 112 277 207 181 187 309 450 385 791 40 181
56 328 63 565 6 215 6 220 -13 205 -89 -69 -329 -293 -577 -539 -163 -162
-297 -291 -297 -285 -1 39 -24 221 -41 324 -53 319 -158 644 -305 943 -35 71
-62 132 -60 134 2 2 37 -3 77 -11 220 -45 300 -50 699 -49 375 2 694 13 706
26 8 8 -126 228 -282 462 -172 260 -294 404 -457 540 l-48 40 123 87 c171 121
503 382 503 395 0 13 -197 170 -420 336 -88 65 -171 127 -185 137 l-25 19 40
33 c83 67 200 186 277 282 124 153 490 718 475 732 -23 23 -985 36 -1157 15
-322 -38 -529 -113 -797 -288 -16 -11 -8 6 27 59 213 320 282 657 265 1293 -8
322 -21 594 -29 602 -10 11 -491 -295 -653 -415 -124 -92 -238 -196 -316 -288
l-70 -83 -50 72 c-116 170 -423 562 -438 562 -13 0 -304 -373 -411 -526 l-81
-117 -59 74 c-111 137 -266 268 -528 441 -145 96 -423 271 -445 279 -9 4 -14
-16 -19 -78z"/>
</g>
</svg>
