<?xml version="1.0" encoding="utf-8"?>
<!-- Generator: Adobe Illustrator 22.0.1, SVG Export Plug-In . SVG Version: 6.00 Build 0)  -->
<svg version="1.1" id="Layer_1" xmlns="http://www.w3.org/2000/svg" xmlns:xlink="http://www.w3.org/1999/xlink" x="0px" y="0px"
	 viewBox="0 0 491.7 266.7" style="enable-background:new 0 0 491.7 266.7;" xml:space="preserve">
<style type="text/css">
	.st0{fill:#7FC5EF;}
	.st1{fill:#414042;}
	.st2{fill:#3395E0;}
	.st3{fill:#67DDE0;}
	.st4{fill:#FFFFFF;}
	.st5{opacity:0.5;fill:#3395E0;enable-background:new    ;}
	.st6{opacity:0.8;}
	.st7{fill:#8CE5E5;}
	.st8{opacity:0.25;}
	.st9{fill:#5F6465;}
	.st10{opacity:0.1;}
	.st11{fill:#231F20;}
	.st12{fill:#45C1E3;}
	.st13{fill:#FF7043;}
	.st14{fill:#FF795F;}
	.st15{opacity:0.18;}
	.st16{fill:#6D6E71;}
	.st17{opacity:0.46;}
	.st18{fill:#AEC4C3;}
	.st19{fill:#ACF0F2;}
	.st20{fill:#F5F5F5;}
	.st21{opacity:0.5;}
	.st22{fill:#EEEEEE;}
</style>
<g id="Warstwa_2_1_">
	<g>
		<path class="st0" d="M201.7,268.2v-75.6c0-35.7-28.5-65.6-28.5-107s40.7-78.5,82-78.5s82,37.1,82,78.5l21.4,53.5h-21.4v32.1
			c0,11.8-9.6,21.4-21.4,21.4h-28.5v75.6L201.7,268.2L201.7,268.2z"/>
	</g>
	<g>
		<line class="st1" x1="1.7" y1="267" x2="1.7" y2="269.4"/>
	</g>
	<g>
		<rect id="XMLID_204_" x="106.3" y="155.6" class="st2" width="96.8" height="112.5"/>
		<rect id="XMLID_196_" x="106.9" y="156" class="st3" width="96.2" height="10.2"/>
		<circle id="XMLID_195_" class="st4" cx="115" cy="160.7" r="1.7"/>
		<circle id="XMLID_193_" class="st4" cx="120" cy="160.7" r="1.7"/>
		<circle id="XMLID_189_" class="st4" cx="125.1" cy="160.7" r="1.7"/>
		<g id="XMLID_188_">
			<polygon class="st1" points="107.5,234.7 105.1,234.7 105.1,154.4 171.6,154.4 171.6,156.8 107.5,156.8 			"/>
		</g>
		<g>
			<rect x="106.9" y="165" class="st1" width="48.9" height="2.4"/>
		</g>
	</g>
	<g>
		<rect id="XMLID_187_" x="298.1" y="189.4" class="st5" width="125.4" height="78.8"/>
		<g id="XMLID_173_">
			<rect x="307.1" y="256.4" class="st1" width="104.3" height="2.5"/>
		</g>
		<g id="XMLID_168_">
			<polygon class="st1" points="424.7,212.8 422.3,212.8 422.3,190.6 314.5,190.6 314.5,188.2 424.7,188.2 			"/>
		</g>
		<g>
			<rect x="305.8" y="200.9" class="st4" width="105.4" height="55.5"/>
		</g>
		<g>
			<g>
				<rect x="329" y="249" class="st0" width="7.5" height="7.5"/>
			</g>
			<g>
				<rect x="340.2" y="245.2" class="st0" width="7.5" height="11.3"/>
			</g>
			<g>
				<rect x="351.5" y="237.7" class="st0" width="7.5" height="18.8"/>
			</g>
			<g>
				<rect x="362.7" y="241.5" class="st0" width="7.5" height="15"/>
			</g>
			<g>
				<rect x="374" y="235.2" class="st0" width="7.5" height="21.3"/>
			</g>
			<g>
				<rect x="385.2" y="232.1" class="st0" width="7.5" height="24.4"/>
			</g>
			<g>
				<rect x="396.5" y="226.5" class="st0" width="7.5" height="30"/>
			</g>
		</g>
		<path class="st1" d="M400.8,220.6V213l-35.8,37.4l-14.3-14.9l-16.3,17.1c-0.4,0.4-0.8,0.5-1.3,0.5c-0.5,0-0.9-0.2-1.3-0.5
			c-0.7-0.7-0.7-1.9,0-2.6l18.9-19.7l14.3,14.9l33.3-34.7H391V207h13v13.5L400.8,220.6L400.8,220.6z"/>
	</g>
	<g>
		<rect x="116.6" y="179.3" class="st1" width="3.3" height="3.3"/>
		<rect x="116.6" y="186.5" class="st1" width="3.3" height="3.3"/>
		<rect x="116.6" y="193.7" class="st1" width="3.3" height="3.3"/>
		<rect x="116.6" y="200.9" class="st1" width="3.3" height="3.3"/>
		<rect x="116.6" y="208.1" class="st1" width="3.3" height="3.3"/>
		<rect x="116.6" y="215.3" class="st1" width="3.3" height="3.3"/>
		<rect x="116.6" y="222.5" class="st1" width="3.3" height="3.3"/>
		<g>
			<path class="st3" d="M145.5,197h-6.7c-0.9,0-1.6-0.7-1.6-1.6c0-0.9,0.7-1.6,1.6-1.6h6.7c0.9,0,1.6,0.7,1.6,1.6
				C147.1,196.3,146.4,197,145.5,197z"/>
		</g>
		<g>
			<path class="st3" d="M167.6,204.2H161c-0.9,0-1.6-0.7-1.6-1.6c0-0.9,0.7-1.6,1.6-1.6h6.6c0.9,0,1.6,0.7,1.6,1.6
				C169.2,203.5,168.5,204.2,167.6,204.2z"/>
		</g>
		<g>
			<path class="st3" d="M150,218.6h-18.8c-0.9,0-1.6-0.7-1.6-1.6c0-0.9,0.7-1.6,1.6-1.6H150c0.9,0,1.6,0.7,1.6,1.6
				C151.6,217.9,150.9,218.6,150,218.6z"/>
		</g>
		<g>
			<path class="st3" d="M143.7,225.8H125c-0.9,0-1.6-0.7-1.6-1.6c0-0.9,0.7-1.6,1.6-1.6h18.8c0.9,0,1.6,0.7,1.6,1.6
				C145.4,225.1,144.6,225.8,143.7,225.8z"/>
		</g>
		<g>
			<g class="st6">
				<path class="st4" d="M143.7,182.6H125c-0.9,0-1.6-0.7-1.6-1.6c0-0.9,0.7-1.6,1.6-1.6h18.8c0.9,0,1.6,0.7,1.6,1.6
					C145.4,181.9,144.6,182.6,143.7,182.6z"/>
			</g>
			<g class="st6">
				<path class="st4" d="M149.6,189.8H129c-0.9,0-1.6-0.7-1.6-1.6c0-0.9,0.7-1.6,1.6-1.6h20.6c0.9,0,1.6,0.7,1.6,1.6
					C151.2,189.1,150.5,189.8,149.6,189.8z"/>
			</g>
			<g class="st6">
				<path class="st4" d="M133.8,197h-6.7c-0.9,0-1.6-0.7-1.6-1.6c0-0.9,0.7-1.6,1.6-1.6h6.7c0.9,0,1.6,0.7,1.6,1.6
					C135.4,196.3,134.7,197,133.8,197z"/>
			</g>
			<g class="st6">
				<path class="st4" d="M172.7,197h-22.1c-0.9,0-1.6-0.7-1.6-1.6c0-0.9,0.7-1.6,1.6-1.6h22.1c0.9,0,1.6,0.7,1.6,1.6
					C174.3,196.3,173.6,197,172.7,197z"/>
			</g>
			<g class="st6">
				<path class="st4" d="M155.7,204.2h-24.8c-0.9,0-1.6-0.7-1.6-1.6c0-0.9,0.7-1.6,1.6-1.6h24.8c0.9,0,1.6,0.7,1.6,1.6
					C157.3,203.5,156.6,204.2,155.7,204.2z"/>
			</g>
			<g class="st6">
				<path class="st4" d="M159.7,211.4H125c-0.9,0-1.6-0.7-1.6-1.6c0-0.9,0.7-1.6,1.6-1.6h34.7c0.9,0,1.6,0.7,1.6,1.6
					C161.3,210.7,160.6,211.4,159.7,211.4z"/>
			</g>
			<g class="st6">
				<path class="st4" d="M163.6,218.6h-8.3c-0.9,0-1.6-0.7-1.6-1.6c0-0.9,0.7-1.6,1.6-1.6h8.3c0.9,0,1.6,0.7,1.6,1.6
					C165.2,217.9,164.5,218.6,163.6,218.6z"/>
			</g>
			<g class="st6">
				<path class="st4" d="M169.2,225.8h-18.8c-0.9,0-1.6-0.7-1.6-1.6c0-0.9,0.7-1.6,1.6-1.6h18.8c0.9,0,1.6,0.7,1.6,1.6
					C170.8,225.1,170.1,225.8,169.2,225.8z"/>
			</g>
			<g class="st6">
				<path class="st4" d="M172.7,182.6h-13.7c-0.9,0-1.6-0.7-1.6-1.6c0-0.9,0.7-1.6,1.6-1.6h13.7c0.9,0,1.6,0.7,1.6,1.6
					C174.3,181.9,173.6,182.6,172.7,182.6z"/>
			</g>
		</g>
		<g>
			<path class="st3" d="M153.3,182.6h-5c-0.9,0-1.6-0.7-1.6-1.6c0-0.9,0.7-1.6,1.6-1.6h5c0.9,0,1.6,0.7,1.6,1.6
				C155,181.9,154.2,182.6,153.3,182.6z"/>
		</g>
	</g>
	<g>
		<path id="XMLID_118_" class="st4" d="M231.1,162.1l-5.2-15c1.1-3.9,1.4-8,0.8-12.3c-2.4-16.1-17.5-27.3-33.6-24.9
			s-27.3,17.5-24.9,33.6c2.4,16.1,17.5,27.3,33.6,24.9c5.7-0.9,10.8-3.3,14.8-6.8L231.1,162.1z"/>
		<g id="XMLID_117_">
			<path class="st1" d="M197.5,169.9c-15,0-28.1-11-30.4-26.2c-2.5-16.8,9.1-32.4,25.9-35c16.8-2.5,32.5,9.1,35,25.9
				c0.6,4.2,0.4,8.3-0.7,12.4l5.6,16.3l-15.7-0.5c-4.3,3.6-9.5,5.9-15.1,6.8C200.5,169.8,199,169.9,197.5,169.9z M197.5,110.8
				c-1.4,0-2.8,0.1-4.2,0.3c-15.5,2.3-26.2,16.8-23.9,32.3c2.3,15.5,16.8,26.2,32.3,23.9c5.2-0.8,10.2-3,14.2-6.5l0.4-0.3l13.2,0.4
				l-4.7-13.7l0.1-0.4c1.1-3.9,1.3-7.9,0.7-11.8C223.4,120.9,211.3,110.8,197.5,110.8z"/>
		</g>
		<g>
			<g>
				<g>
					<path class="st0" d="M197.4,120c-5.3,0-9.5,4.3-9.5,9.5v6.1h5.2v-6.1c0-2.4,1.9-4.3,4.3-4.3c2.4,0,4.3,1.9,4.3,4.3v6.1h5.2
						v-6.1C206.9,124.3,202.6,120,197.4,120z"/>
				</g>
			</g>
			<g>
				<path class="st2" d="M210.4,153.8c0,1.4-1.2,2.6-2.6,2.6H187c-1.4,0-2.6-1.2-2.6-2.6v-15.6c0-1.4,1.2-2.6,2.6-2.6h20.8
					c1.4,0,2.6,1.2,2.6,2.6L210.4,153.8L210.4,153.8z"/>
			</g>
			<g>
				<g>
					<polygon class="st4" points="197.4,146.9 192.2,146.9 197.4,141.7 202.6,141.7 					"/>
				</g>
				<g>
					<polygon class="st4" points="210.4,146.9 200.8,146.9 206,141.7 210.4,141.7 					"/>
				</g>
				<g>
					<polygon class="st4" points="184.4,141.7 193.9,141.7 188.7,146.9 184.4,146.9 					"/>
				</g>
			</g>
			<g>
				<path class="st1" d="M207.8,157.3H187c-1.9,0-3.5-1.6-3.5-3.5v-15.6c0-1.9,1.6-3.5,3.5-3.5h20.8c1.9,0,3.5,1.6,3.5,3.5v15.6
					C211.2,155.7,209.7,157.3,207.8,157.3z M187,136.5c-1,0-1.7,0.8-1.7,1.7v15.6c0,1,0.8,1.7,1.7,1.7h20.8c1,0,1.7-0.8,1.7-1.7
					v-15.6c0-1-0.8-1.7-1.7-1.7H187z"/>
			</g>
			<g>
				<path class="st1" d="M202.6,135.6h-1.7v-6.1c0-1.9-1.6-3.5-3.5-3.5c-1.9,0-3.5,1.6-3.5,3.5v6.1h-1.7v-6.1c0-2.9,2.3-5.2,5.2-5.2
					s5.2,2.3,5.2,5.2L202.6,135.6L202.6,135.6z"/>
			</g>
			<g>
				<path class="st1" d="M207.8,135.6H206v-6.1c0-4.8-3.9-8.7-8.7-8.7s-8.7,3.9-8.7,8.7v6.1H187v-6.1c0-5.7,4.7-10.4,10.4-10.4
					s10.4,4.7,10.4,10.4L207.8,135.6L207.8,135.6z"/>
			</g>
		</g>
	</g>
	<g>
		<path class="st7" d="M220,194.2c-3.7,0-6.4-0.1-8.1-0.4c-7-1-11.2-4.3-12.9-6c-0.1,0.1-0.3,0.3-0.4,0.4c-1.9,1.8-5.9,4.8-12.3,5.6
			c-1.8,0.2-4.9,0.3-9.1,0.3c-5.5,0-11.7-0.2-14.2-0.3c0.1,13.9,2.3,25.4,5.3,34.9c3.6,11,8.4,19.2,12.8,24.9
			c7.7,10.1,15.5,14.8,17.5,15.9c0,0,0,0,0,0c2.1-1.2,9.9-6.1,17.6-16.3c4.3-5.7,9.1-13.8,12.6-24.5c3.1-9.5,5.3-21,5.5-34.9
			C231.7,193.9,225.4,194.2,220,194.2z"/>
		<path class="st3" d="M211.9,193.8c-7-1-11.2-4.3-12.9-6l-0.4,80.3c0.3,0.2,1.3-0.5,1.5-0.4c1.5-1.8,1-1.2,1-1.2
			c2.1-1.2,7.3-3.1,15-13.3c4.3-5.7,9.1-13.8,12.6-24.5c3.1-9.5,5.3-21,5.5-34.9c-2.6,0.1-8.8,0.4-14.3,0.4
			C216.3,194.2,213.6,194,211.9,193.8z"/>
		<g>
			<path class="st1" d="M198.8,269.5l-0.7-0.4c-2.2-1.2-10.1-6-17.9-16.2c-5.5-7.2-9.8-15.7-12.9-25.3c-3.5-10.7-5.3-22.5-5.4-35.2
				l0-1.2l1.2,0c2.4,0.1,8.6,0.3,14.2,0.3c4.2,0,7.2-0.1,9-0.3c6.1-0.7,9.9-3.6,11.6-5.2l1.2-1.2l0.8,0.8c1.7,1.7,5.6,4.7,12.2,5.7
				c1.6,0.2,4.3,0.4,7.9,0.4c5.4,0,11.8-0.3,14.2-0.4l1.3-0.1l0,1.3c-0.1,12.6-2,24.5-5.5,35.2c-3.1,9.4-7.4,17.7-12.8,24.9
				c-7.7,10.2-15.5,15.2-17.8,16.6L198.8,269.5z M164.2,193.6c0.2,12,2,23.2,5.2,33.3c3,9.3,7.3,17.6,12.6,24.6
				c6.9,9.1,13.9,13.7,16.6,15.3c2.7-1.6,9.7-6.5,16.6-15.7c5.2-6.9,9.4-15.1,12.4-24.2c3.4-10.1,5.2-21.3,5.4-33.2
				c-3,0.1-8.3,0.3-13.1,0.3c-3.8,0-6.5-0.1-8.2-0.4c-6.4-0.9-10.5-3.6-12.7-5.6c-2.1,1.9-6.2,4.7-12.5,5.5c-1.9,0.2-5,0.3-9.3,0.3
				C172.4,193.9,167.1,193.7,164.2,193.6z"/>
		</g>
	</g>
	<g id="XMLID_108_">
		<circle id="XMLID_111_" class="st4" cx="199.3" cy="223" r="16.3"/>
		<g id="XMLID_110_">
			<path class="st1" d="M199.3,240.4c-9.6,0-17.5-7.8-17.5-17.5c0-9.6,7.8-17.5,17.5-17.5c9.6,0,17.5,7.8,17.5,17.5
				C216.8,232.6,208.9,240.4,199.3,240.4z M199.3,207.9c-8.3,0-15.1,6.8-15.1,15.1c0,8.3,6.8,15.1,15.1,15.1
				c8.3,0,15.1-6.8,15.1-15.1C214.4,214.6,207.6,207.9,199.3,207.9z"/>
		</g>
		<g id="XMLID_109_">
			<polygon class="st1" points="196.9,229.5 190.2,222.8 191.9,221.2 196.9,226.2 206.8,216.4 208.4,218.1 			"/>
		</g>
	</g>
	<g>
		<g>
			<path class="st3" d="M121.4,254.4c0,7.7-6.2,13.9-13.9,13.9c-7.7,0-13.9-6.2-13.9-13.9c0-7.7,6.2-13.9,13.9-13.9
				C115.1,240.5,121.4,246.7,121.4,254.4z"/>
			<g>
				<path class="st1" d="M107.5,269.5c-8.3,0-15.1-6.8-15.1-15.1c0-8.3,6.8-15.1,15.1-15.1c4.6,0,8.9,2.1,11.8,5.7l-1.9,1.5
					c-2.4-3.1-6.1-4.8-10-4.8c-7,0-12.7,5.7-12.7,12.7c0,7,5.7,12.7,12.7,12.7c4,0,7.9-1.9,10.3-5.2l1.9,1.4
					C116.8,267.2,112.2,269.5,107.5,269.5z"/>
			</g>
			<g>
				<path class="st4" d="M103.5,257L103.5,257l-1.1,1.2l-3.3-3.3v-0.2l3.3-3.3l1.1,1.1v0.1l-2.3,2.2L103.5,257z"/>
				<path class="st4" d="M110.8,248.3l-4.8,12.2h-1.8l4.8-12.2H110.8z"/>
				<path class="st4" d="M113.7,254.8l-2.3-2.2v-0.1l1.1-1.1l3.3,3.3v0.2l-3.3,3.3l-1.1-1.1V257L113.7,254.8z"/>
			</g>
		</g>
		<g>
			<circle class="st3" cx="151.7" cy="255" r="13.3"/>
			<g>
				<path class="st1" d="M151.7,269.5c-3.6,0-7-1.3-9.7-3.7l1.6-1.8c2.2,2,5.1,3.1,8.1,3.1c6.7,0,12.1-5.4,12.1-12.1
					c0-6.7-5.4-12.1-12.1-12.1c-3.2,0-6.3,1.3-8.6,3.6l-1.7-1.7c2.7-2.7,6.4-4.3,10.3-4.3c8,0,14.5,6.5,14.5,14.5
					S159.7,269.5,151.7,269.5z"/>
			</g>
			<g>
				<polygon class="st1" points="150.2,259.9 145.1,254.8 146.9,253 150.2,256.3 156.5,250.1 158.3,251.9 				"/>
			</g>
		</g>
		<g>
			<circle class="st4" cx="130.4" cy="255.9" r="12.4"/>
			<g>
				<path class="st1" d="M130.4,269.5c-6.1,0-11.7-4.1-13.2-10.3c-1.8-7.3,2.6-14.7,9.9-16.5c7.3-1.8,14.7,2.6,16.5,9.9
					c1.8,7.3-2.6,14.7-9.9,16.5C132.6,269.4,131.5,269.5,130.4,269.5z M130.4,244.6c-0.9,0-1.8,0.1-2.7,0.3c-6,1.5-9.7,7.6-8.2,13.6
					c1.5,6,7.6,9.7,13.6,8.2c6-1.5,9.7-7.6,8.2-13.6C140,248.1,135.4,244.6,130.4,244.6z"/>
			</g>
			<g>
				<path class="st1" d="M128.9,255.1l-0.7-2.9l2.3-0.6l0.7,2.9l2.9-0.7l0.5,2.1l-2.9,0.7l0.7,2.9l-2.3,0.6l-0.7-2.9l-2.8,0.7
					l-0.5-2.1L128.9,255.1z"/>
			</g>
		</g>
	</g>
	<g>
		<g>
			<rect x="149.6" y="131.6" class="st1" width="1.9" height="1.9"/>
		</g>
		<g>
			<path class="st1" d="M134.5,137.3h-1.9v-4.7c0-0.5,0.4-0.9,0.9-0.9h14.1v1.9h-13.2V137.3L134.5,137.3z"/>
		</g>
		<g>
			<g>
				<g>
					<g>
						<g>
							<path class="st1" d="M151.7,102.9h-1.9c0-3.1-2.5-5.7-5.7-5.7v-1.9C148.3,95.4,151.7,98.8,151.7,102.9z"/>
						</g>
						<g>
							<rect x="127.4" y="95.4" class="st1" width="16.7" height="1.9"/>
						</g>
						<g>
							<polygon class="st1" points="130.5,100.8 126.1,96.3 130.5,91.9 131.9,93.2 128.8,96.3 131.9,99.4 							"/>
						</g>
					</g>
				</g>
				<g>
					<rect x="122.6" y="88.8" class="st1" width="21.3" height="1.9"/>
				</g>
				<g>
					<polygon class="st1" points="124.8,94.1 120.4,89.7 124.8,85.3 126.2,86.6 123.1,89.7 126.2,92.8 					"/>
				</g>
				<g>
					<path class="st1" d="M158.2,103h-1.9c0-6.8-5.5-12.4-12.4-12.4v-1.9C151.8,88.8,158.2,95.2,158.2,103z"/>
				</g>
			</g>
		</g>
		<g>
			<path class="st4" d="M123.2,103.3H159c1.6,0,2.8,1.3,2.8,2.8V125c0,1.6-1.3,2.8-2.8,2.8h-35.8c-1.6,0-2.8-1.3-2.8-2.8v-18.8
				C120.4,104.6,121.7,103.3,123.2,103.3z"/>
		</g>
		<g>
			<rect x="120.4" y="108" class="st2" width="41.5" height="5.7"/>
		</g>
		<path class="st1" d="M159,102.4h-2.7v1.9h2.7c1,0,1.9,0.8,1.9,1.9V125c0,1-0.8,1.9-1.9,1.9h-35.8c-1,0-1.9-0.8-1.9-1.9v-18.8
			c0-1,0.8-1.9,1.9-1.9h28.5v-1.9h-28.5c-2.1,0-3.8,1.7-3.8,3.8V125c0,2.1,1.7,3.8,3.8,3.8H159c2.1,0,3.8-1.7,3.8-3.8v-18.8
			C162.8,104.1,161.1,102.4,159,102.4z"/>
		<g>
			<rect x="123.2" y="115.6" class="st3" width="26.4" height="3.8"/>
		</g>
		<g>
			<rect x="151.5" y="115.6" class="st3" width="7.5" height="3.8"/>
		</g>
		<g>
			<rect x="123.2" y="121.2" class="st1" width="13.2" height="1.9"/>
		</g>
		<g>
			<rect x="138.3" y="121.2" class="st1" width="3.8" height="1.9"/>
		</g>
	</g>
	<g class="st8">
		<g id="XMLID_26_">
			<g id="XMLID_30_">
				<rect x="85.6" y="94.3" class="st1" width="2.9" height="2.4"/>
			</g>
			<g id="XMLID_29_">
				<rect x="93.2" y="94.3" class="st1" width="2.9" height="2.4"/>
			</g>
			<g id="XMLID_28_">
				<rect x="89.7" y="97.8" class="st1" width="2.4" height="2.9"/>
			</g>
			<g id="XMLID_27_">
				<rect x="89.7" y="90.2" class="st1" width="2.4" height="2.9"/>
			</g>
		</g>
		<g id="XMLID_21_">
			<g id="XMLID_25_">
				<rect x="8.8" y="179.1" class="st1" width="2.9" height="2.4"/>
			</g>
			<g id="XMLID_24_">
				<rect x="16.4" y="179.1" class="st1" width="2.9" height="2.4"/>
			</g>
			<g id="XMLID_23_">
				<rect x="12.9" y="182.6" class="st1" width="2.4" height="2.9"/>
			</g>
			<g id="XMLID_22_">
				<rect x="12.9" y="175" class="st1" width="2.4" height="2.9"/>
			</g>
		</g>
		<g id="XMLID_11_">
			<g id="XMLID_15_">
				<rect x="445" y="83.3" class="st1" width="3.1" height="2.4"/>
			</g>
			<g id="XMLID_14_">
				<rect x="453.1" y="83.3" class="st1" width="3.1" height="2.4"/>
			</g>
			<g id="XMLID_13_">
				<rect x="449.4" y="87" class="st1" width="2.4" height="3.1"/>
			</g>
			<g id="XMLID_12_">
				<rect x="449.4" y="78.9" class="st1" width="2.4" height="3.1"/>
			</g>
		</g>
		<g id="XMLID_6_">
			<g id="XMLID_10_">
				<rect x="117.2" y="63.3" class="st1" width="2.9" height="2.4"/>
			</g>
			<g id="XMLID_9_">
				<rect x="124.8" y="63.3" class="st1" width="2.9" height="2.4"/>
			</g>
			<g id="XMLID_8_">
				<rect x="121.3" y="66.8" class="st1" width="2.4" height="2.9"/>
			</g>
			<g id="XMLID_7_">
				<rect x="121.3" y="59.2" class="st1" width="2.4" height="2.9"/>
			</g>
		</g>
		<g id="XMLID_1_">
			<g id="XMLID_5_">
				<rect x="151.1" y="51.7" class="st1" width="2.9" height="2.4"/>
			</g>
			<g id="XMLID_4_">
				<rect x="158.7" y="51.7" class="st1" width="2.9" height="2.4"/>
			</g>
			<g id="XMLID_3_">
				<rect x="155.2" y="55.3" class="st1" width="2.4" height="2.9"/>
			</g>
			<g id="XMLID_2_">
				<rect x="155.2" y="47.7" class="st1" width="2.4" height="2.9"/>
			</g>
		</g>
		<g>
			<rect x="136.4" y="63.3" class="st1" width="46.8" height="2.4"/>
		</g>
		<g>
			<rect x="185.7" y="63.3" class="st1" width="6.4" height="2.4"/>
		</g>
		<g>
			<rect x="21.1" y="166.8" class="st1" width="46.8" height="2.4"/>
		</g>
		<g>
			<rect x="70.3" y="166.8" class="st1" width="7.5" height="2.4"/>
		</g>
		<g>
			<g>
				<path class="st1" d="M398.7,159.9h-20.6v-20.6h20.6V159.9z M380.5,157.6h15.8v-15.8h-15.8V157.6z"/>
			</g>
			<g>
				
					<rect x="375.6" y="148.4" transform="matrix(0.7071 -0.7071 0.7071 0.7071 7.9645 318.4932)" class="st1" width="25.8" height="2.4"/>
			</g>
			<g>
				
					<rect x="387.2" y="136.7" transform="matrix(0.7071 -0.7071 0.7071 0.7071 7.9645 318.4932)" class="st1" width="2.4" height="25.8"/>
			</g>
		</g>
		<g>
			<g>
				<path class="st1" d="M425.5,164.6c-8.3,0-15-6.7-15-15s6.7-15,15-15s15,6.7,15,15C440.5,157.9,433.8,164.6,425.5,164.6z
					 M425.5,136.6c-7.2,0-13,5.8-13,13s5.8,13,13,13c7.2,0,13-5.8,13-13C438.5,142.5,432.7,136.6,425.5,136.6z"/>
			</g>
		</g>
		<g>
			<rect x="424.5" y="135.6" class="st1" width="2" height="14"/>
		</g>
		<g>
			<rect x="425.5" y="148.6" class="st1" width="14" height="2"/>
		</g>
		<g>
			
				<rect x="419.5" y="137.6" transform="matrix(0.7071 -0.7071 0.7071 0.7071 20.8879 339.6928)" class="st1" width="2" height="14.1"/>
		</g>
		<g>
			
				<rect x="413.4" y="153.6" transform="matrix(0.7071 -0.7071 0.7071 0.7071 13.8168 342.6218)" class="st1" width="14.1" height="2"/>
		</g>
		<g>
			<g>
				<g>
					<circle class="st4" cx="62.1" cy="130.9" r="13"/>
				</g>
				<g>
					<path class="st9" d="M62.1,150.9c-0.2,0-0.4-0.1-0.5-0.2l-13-8.1l1.1-1.7l11.5,7.2v-15.6l-14-8.8v12.2h-2v-14
						c0-0.4,0.2-0.7,0.5-0.9c0.3-0.2,0.7-0.2,1,0l16,10c0.3,0.2,0.5,0.5,0.5,0.8v18c0,0.4-0.2,0.7-0.5,0.9
						C62.5,150.9,62.3,150.9,62.1,150.9z"/>
				</g>
				<g>
					<path class="st9" d="M62.1,150.9c-0.2,0-0.3,0-0.5-0.1c-0.3-0.2-0.5-0.5-0.5-0.9v-18c0-0.3,0.2-0.7,0.5-0.8l16-10
						c0.3-0.2,0.7-0.2,1,0c0.3,0.2,0.5,0.5,0.5,0.9v14h-2v-12.2l-14,8.8v15.6l11.5-7.2l1.1,1.7l-13,8.1
						C62.5,150.9,62.3,150.9,62.1,150.9z"/>
				</g>
				<g>
					<path class="st9" d="M62.1,132.9c-0.2,0-0.4-0.1-0.5-0.2l-16-10c-0.3-0.2-0.5-0.5-0.5-0.8s0.2-0.7,0.5-0.8l13-8.1l1.1,1.7
						L48,121.9l14.1,8.8l14.1-8.8l-11.6-7.3l1.1-1.7l13,8.1c0.3,0.2,0.5,0.5,0.5,0.8s-0.2,0.7-0.5,0.8l-16,10
						C62.5,132.9,62.3,132.9,62.1,132.9z"/>
				</g>
				<g>
					
						<rect x="36.9" y="137.9" transform="matrix(0.8944 -0.4472 0.4472 0.8944 -57.0374 36.1867)" class="st9" width="22.4" height="2"/>
				</g>
				<g>
					<path class="st9" d="M45.8,147.8l-8-3c-0.5-0.2-0.8-0.8-0.6-1.3l3-8l1.9,0.7l-2.6,7.1l7.1,2.6L45.8,147.8z"/>
				</g>
				<g>
					
						<rect x="75.1" y="127.7" transform="matrix(0.4472 -0.8944 0.8944 0.4472 -82.156 144.8667)" class="st9" width="2" height="22.4"/>
				</g>
				<g>
					<path class="st9" d="M78.5,147.8l-0.7-1.9l7.1-2.6l-2.6-7.1l1.9-0.7l3,8c0.2,0.5-0.1,1.1-0.6,1.3L78.5,147.8z"/>
				</g>
				<g>
					<rect x="61.1" y="104.9" class="st9" width="2" height="22"/>
				</g>
				<g>
					<path class="st9" d="M68.5,111.7l-6.4-5.4l-6.3,5.4l-1.3-1.5l7-6c0.4-0.3,0.9-0.3,1.3,0l7,6L68.5,111.7z"/>
				</g>
			</g>
		</g>
		<g>
			<g>
				<path class="st1" d="M478.2,194.7c-4.1,0-6.2-2.3-8.1-4.3c-1.8-2-3.4-3.7-6.6-3.7s-4.8,1.7-6.6,3.7c-1.9,2-4,4.3-8.1,4.3
					c-4.1,0-6.2-2.3-8.1-4.3c-1.8-2-3.4-3.7-6.6-3.7v-2c4.1,0,6.2,2.3,8.1,4.3c1.8,2,3.4,3.7,6.6,3.7c3.2,0,4.8-1.7,6.6-3.7
					c1.9-2,4-4.3,8.1-4.3s6.2,2.3,8.1,4.3c1.8,2,3.4,3.7,6.6,3.7V194.7z"/>
			</g>
			<g>
				<rect x="440.2" y="194.7" class="st1" width="2" height="7"/>
			</g>
			<g>
				<rect x="446.2" y="198.7" class="st1" width="2" height="3"/>
			</g>
			<g>
				<rect x="452.2" y="197.7" class="st1" width="2" height="4"/>
			</g>
			<g>
				<rect x="458.2" y="192.7" class="st1" width="2" height="9"/>
			</g>
			<g>
				<rect x="464.2" y="190.7" class="st1" width="2" height="11"/>
			</g>
			<g>
				<rect x="470.2" y="195.7" class="st1" width="2" height="6"/>
			</g>
			<g>
				<path class="st1" d="M477.2,202.7h-42c-0.6,0-1-0.4-1-1v-11h2v10h40v-2h2v3C478.2,202.3,477.8,202.7,477.2,202.7z"/>
			</g>
		</g>
		<g>
			<g>
				<polygon class="st4" points="388.4,118.6 357.4,98.6 388.4,78.6 419.4,98.6 				"/>
			</g>
			<g>
				<path class="st9" d="M388.4,119.6c-0.2,0-0.4-0.1-0.5-0.2l-31-20c-0.3-0.2-0.5-0.5-0.5-0.8s0.2-0.7,0.5-0.8l31-20
					c0.3-0.2,0.8-0.2,1.1,0l31,20c0.3,0.2,0.5,0.5,0.5,0.8s-0.2,0.7-0.5,0.8l-31,20C388.8,119.6,388.6,119.6,388.4,119.6z
					 M359.3,98.6l29.2,18.8l29.2-18.8l-29.2-18.8L359.3,98.6z"/>
			</g>
			<g>
				<polygon class="st3" points="388.4,110.6 357.4,90.6 388.4,70.6 419.4,90.6 				"/>
			</g>
			<g>
				<polygon class="st4" points="388.4,102.6 369.4,90.6 388.4,78.6 407.4,90.6 				"/>
			</g>
			<g>
				<path class="st9" d="M388.4,111.6c-0.2,0-0.4-0.1-0.5-0.2l-31-20c-0.3-0.2-0.5-0.5-0.5-0.8s0.2-0.7,0.5-0.8l31-20
					c0.3-0.2,0.8-0.2,1.1,0l31,20c0.3,0.2,0.5,0.5,0.5,0.8s-0.2,0.7-0.5,0.8l-31,20C388.8,111.6,388.6,111.6,388.4,111.6z
					 M359.3,90.6l29.2,18.8l29.2-18.8l-29.2-18.8L359.3,90.6z"/>
			</g>
			<g>
				<path class="st9" d="M388.4,103.6c-0.2,0-0.4-0.1-0.5-0.2l-31-20c-0.3-0.2-0.5-0.5-0.5-0.8s0.2-0.7,0.5-0.8l31-20
					c0.3-0.2,0.8-0.2,1.1,0l31,20c0.3,0.2,0.5,0.5,0.5,0.8s-0.2,0.7-0.5,0.8l-31,20C388.8,103.6,388.6,103.6,388.4,103.6z
					 M359.3,82.6l29.2,18.8l29.2-18.8l-29.2-18.8L359.3,82.6z"/>
			</g>
		</g>
	</g>
	<g>
		<g class="st10">
			<path class="st11" d="M286.2,170.3v93.4c0,3,2.4,5.4,5.4,5.4h52.1v-18.3c0-22.8-14.8-38.7-38.6-42.9v-2.4
				c12.8-4.7,22.2-16.4,23.8-30.4c4.2-0.5,7.4-3.9,7.4-8.2c0-0.7-0.1-1.4-0.3-2.1h-44.4C288.7,164.9,286.2,167.3,286.2,170.3z"/>
		</g>
		<g>
			<g id="XMLID_32_">
				<path class="st12" d="M335.9,267.6v-16.9c0-27.8-22.1-42.2-50-42.2l0,0c-27.8,0-51.2,14.4-51.2,42.2v16.9H335.9z"/>
			</g>
			<g id="XMLID_31_">
				<path class="st1" d="M337.7,269.5H232.8v-18.7c0-30.4,26.7-44,53.1-44c31.5,0,51.8,17.3,51.8,44V269.5z M236.5,265.8H334v-15
					c0-24.5-18.9-40.4-48.1-40.4c-22.8,0-49.4,10.6-49.4,40.4L236.5,265.8L236.5,265.8z"/>
			</g>
			<g>
				<polygon class="st13" points="285.5,225.8 277.5,230 285.1,237 293.2,230 				"/>
			</g>
			<g>
				<polygon class="st14" points="291.3,231 279.4,231 276.2,267.5 294.7,267.5 				"/>
			</g>
			<g>
				<path class="st4" d="M273.2,212.9v17.5c0,0.7,0.8,1.1,1.4,0.8l11.3-6.4L273.2,212.9z"/>
			</g>
			<g>
				<path class="st1" d="M273.8,233.4c-0.4,0-0.8-0.1-1.2-0.3c-0.7-0.4-1.2-1.2-1.2-2v-18.1h3.6v15.9l9.9-5.6l1.8,3.2l-11.8,6.7
					C274.6,233.3,274.2,233.4,273.8,233.4z"/>
			</g>
			<g>
				<path class="st4" d="M297.6,212.9v15.8c0,1.4-1.6,2.3-2.8,1.6l-9.8-5.6L297.6,212.9z"/>
			</g>
			<g>
				<path class="st1" d="M296,232.4c-0.5,0-1.1-0.1-1.6-0.4l-10.3-5.8l1.8-3.2l9.7,5.5v-15.6h3.6v16.3c0,1.2-0.6,2.2-1.6,2.8
					C297.1,232.3,296.5,232.4,296,232.4z"/>
			</g>
			<g>
				<polygon class="st1" points="285,239.4 276.2,231.3 278.7,228.6 285.1,234.5 292,228.6 294.4,231.4 				"/>
			</g>
			<g>
				
					<rect x="259.5" y="247.4" transform="matrix(8.959802e-02 -0.996 0.996 8.959802e-02 4.6786 503.6366)" class="st1" width="36.6" height="3.6"/>
			</g>
			<g>
				
					<rect x="291.2" y="230.9" transform="matrix(0.9957 -9.260032e-02 9.260032e-02 0.9957 -21.8218 28.2021)" class="st1" width="3.6" height="36.6"/>
			</g>
			<g>
				<rect x="299.7" y="245.5" class="st1" width="13.5" height="3.6"/>
			</g>
			<g>
				<rect x="248.8" y="257.3" class="st1" width="3.6" height="9.2"/>
			</g>
			<g>
				<rect x="318.2" y="257.3" class="st1" width="3.6" height="9.2"/>
			</g>
			<g>
				<circle class="st4" cx="251.1" cy="168" r="6.5"/>
			</g>
			<g>
				<path class="st1" d="M251.1,175.2c-4.6,0-8.3-3.7-8.3-8.3c0-4.6,3.7-8.3,8.3-8.3c4.6,0,8.3,3.7,8.3,8.3
					C259.4,171.5,255.7,175.2,251.1,175.2z M251.1,162.3c-2.6,0-4.7,2.1-4.7,4.7c0,2.6,2.1,4.7,4.7,4.7s4.7-2.1,4.7-4.7
					C255.8,164.3,253.7,162.3,251.1,162.3z"/>
			</g>
			<g>
				<circle class="st4" cx="322" cy="168" r="6.5"/>
			</g>
			<g>
				<path class="st1" d="M322,175.2c-4.6,0-8.3-3.7-8.3-8.3c0-4.6,3.7-8.3,8.3-8.3s8.3,3.7,8.3,8.3
					C330.3,171.5,326.6,175.2,322,175.2z M322,162.3c-2.6,0-4.7,2.1-4.7,4.7c0,2.6,2.1,4.7,4.7,4.7c2.6,0,4.7-2.1,4.7-4.7
					C326.7,164.3,324.6,162.3,322,162.3z"/>
			</g>
			<g>
				<path class="st4" d="M285.2,168.5c-6.6,0-12,5.4-12,12v32.6l12,11.3l12-11.3v-32.6C297.3,173.9,291.9,168.5,285.2,168.5
					L285.2,168.5z"/>
			</g>
			<g>
				<path class="st1" d="M285.2,226.9l-13.8-13v-33.4c0-7.6,6.2-13.8,13.8-13.8c7.6,0,13.8,6.2,13.8,13.8v33.4L285.2,226.9z
					 M275,212.4l10.2,9.6l10.2-9.6v-31.8c0-5.6-4.6-10.2-10.2-10.2s-10.2,4.6-10.2,10.2V212.4z"/>
			</g>
			<g class="st15">
				<path class="st11" d="M273.2,208.6c4.6,2.3,7.6,3.6,13.1,3.6c4.6,0,6.9-0.9,10.9-2.6v-34.1h-24V208.6z"/>
			</g>
			<g>
				<path class="st4" d="M251.4,134.5v36.6c0,19.3,15.6,34.9,34.9,34.9l0,0c19.3,0,34.9-15.6,34.9-34.9v-36.6h-47.2H251.4z"/>
			</g>
			<g>
				<path class="st1" d="M286.4,207.8c-20.3,0-36.8-16.5-36.8-36.8v-38.4h73.5v38.4C323.1,191.3,306.6,207.8,286.4,207.8z
					 M253.2,136.3v34.8c0,18.3,14.9,33.1,33.1,33.1c18.3,0,33.1-14.9,33.1-33.1v-34.8H253.2z"/>
			</g>
			<g>
				<path class="st1" d="M286.7,181.7c-3.7,0-6.7-3-6.7-6.7h3.6c0,1.7,1.4,3.1,3.1,3.1c1.7,0,3.1-1.4,3.1-3.1h3.6
					C293.4,178.7,290.4,181.7,286.7,181.7z"/>
			</g>
			<g>
				<circle class="st1" cx="301.5" cy="162.8" r="2.2"/>
			</g>
			<g>
				<circle class="st1" cx="272.2" cy="162.8" r="2.2"/>
			</g>
			<g>
				<path class="st1" d="M286.7,192.4c-3.4,0-6.6-1-9.1-2.9l2.2-2.9c3.6,2.8,10.1,2.8,13.7,0l2.2,2.9
					C293.4,191.4,290.1,192.4,286.7,192.4z"/>
			</g>
			<g class="st15">
				<path class="st11" d="M251.4,132.5v15.9c0.8,0.1,3,0.3,5.2-1.6c3-2.6,4.3-5.6,4.3-5.6s14.3,10.9,36.4,10.9c18.2,0,24-9.4,24-9.4
					v-10.2h-47.2H251.4z"/>
			</g>
			<g>
				<path class="st16" d="M251.1,159.9L251.1,159.9c-4.7,0-8.4-3.8-8.4-8.4v-20.3c0-7,5.7-12.7,12.7-12.7l0,0l0,0
					c0-5.7,4.7-10.4,10.4-10.4H317c6.9,0,12.6,5.6,12.6,12.6v30.5c0,4.5-3.8,8.1-8.3,7.8l0,0v-20.1c0,0-5.8,9.5-24,9.4
					c-22,0-36.4-10.9-36.4-10.9s-1.4,3-4.3,5.6c-2.7,2.4-5.5,1.6-5.5,1.6L251.1,159.9L251.1,159.9z"/>
			</g>
			<g class="st17">
				<path class="st1" d="M251.1,159.9v-15.4c0,0,2.7,0.9,5.5-1.6c3-2.6,4.3-5.6,4.3-5.6s29,15.2,46.2,9.6c-18.7-8.1-43-13-47.1-37.2
					c-2.8,1.9-4.7,5.1-4.7,8.7c-7,0-12.7,5.7-12.7,12.7v20.3C242.7,156.1,246.5,159.9,251.1,159.9z"/>
			</g>
			<g>
				<path class="st1" d="M252.9,161.7h-1.8c-5.7,0-10.3-4.6-10.3-10.3v-20.3c0-7.4,5.6-13.5,12.8-14.4c0.8-5.9,6-10.5,12.1-10.5H317
					c7.9,0,14.4,6.5,14.4,14.4v30.5c0,2.7-1.1,5.2-3,7c-2,1.8-4.5,2.8-7.2,2.6l-1.7-0.1v-21.8h3.6V157c1-0.2,2-0.7,2.8-1.5
					c1.2-1.1,1.9-2.7,1.9-4.4v-30.5c0-5.9-4.8-10.8-10.8-10.8h-51.3c-4.7,0-8.6,3.8-8.6,8.6v1.8h-1.8c-6,0-10.8,4.9-10.8,10.8v20.3
					c0,3,2,5.6,4.8,6.4V142l2.4,0.7c0,0,1.9,0.5,3.7-1.2c2.6-2.3,3.8-5,3.9-5l3.3,1.5c-0.1,0.1-1.5,3.4-4.8,6.2
					c-1.6,1.5-3.4,2-4.8,2.1V161.7z"/>
			</g>
			<g>
				<path class="st1" d="M297.3,150.1C297.3,150.1,297.3,150.1,297.3,150.1c-22.4,0-41.6-14-42.4-14.6l2.2-2.9
					c0.2,0.1,19.1,13.9,40.2,13.9c0,0,0,0,0,0c17,0,24.9-11.6,25-11.7l3,2C324.9,137.3,316.3,150.1,297.3,150.1z"/>
			</g>
			<g>
				<path class="st1" d="M274.6,174.3h-5.1c-5.1,0-9.3-4.2-9.3-9.3v-11.6h14.4c5.1,0,9.3,4.2,9.3,9.3v2.3
					C283.9,170.1,279.7,174.3,274.6,174.3z M263.8,156.9v8c0,3.1,2.6,5.7,5.7,5.7h5.1c3.1,0,5.7-2.6,5.7-5.7v-2.3
					c0-3.1-2.6-5.7-5.7-5.7L263.8,156.9L263.8,156.9z"/>
			</g>
			<g>
				<rect x="251.7" y="153.3" class="st1" width="10.4" height="3.6"/>
			</g>
			<g>
				<rect x="310.9" y="153.3" class="st1" width="10.4" height="3.6"/>
			</g>
			<g>
				<rect x="282.1" y="158.1" class="st1" width="9.6" height="3.6"/>
			</g>
			<g>
				<rect x="284.4" y="192.7" class="st1" width="4.8" height="3.6"/>
			</g>
			<g>
				<path class="st1" d="M304.2,174.3h-5.1c-5.1,0-9.3-4.2-9.3-9.3v-2.3c0-5.1,4.2-9.3,9.3-9.3h14.4v11.6
					C313.5,170.1,309.3,174.3,304.2,174.3z M299.1,156.9c-3.1,0-5.7,2.6-5.7,5.7v2.3c0,3.1,2.6,5.7,5.7,5.7h5.1
					c3.1,0,5.7-2.6,5.7-5.7v-8L299.1,156.9L299.1,156.9z"/>
			</g>
		</g>
	</g>
	<g>
		<g>
			<g>
				<rect x="226.8" y="56.9" class="st4" width="52" height="8"/>
			</g>
			<g>
				<path class="st1" d="M275.8,83.9h-46c-2.2,0-4-1.8-4-4v-24c0-2.2,1.8-4,4-4h46c2.2,0,4,1.8,4,4v24
					C279.8,82.1,278,83.9,275.8,83.9z M229.8,53.9c-1.1,0-2,0.9-2,2v24c0,1.1,0.9,2,2,2h46c1.1,0,2-0.9,2-2v-24c0-1.1-0.9-2-2-2
					H229.8z"/>
			</g>
			<g>
				<path class="st4" d="M239.8,64.9h46c1.7,0,3,1.3,3,3v24c0,1.7-1.3,3-3,3h-46c-1.7,0-3-1.3-3-3v-24
					C236.8,66.2,238.1,64.9,239.8,64.9z"/>
			</g>
			<g>
				<path class="st1" d="M285.8,95.9h-46c-2.2,0-4-1.8-4-4v-24c0-2.2,1.8-4,4-4h46c2.2,0,4,1.8,4,4v24
					C289.8,94.1,288,95.9,285.8,95.9z M239.8,65.9c-1.1,0-2,0.9-2,2v24c0,1.1,0.9,2,2,2h46c1.1,0,2-0.9,2-2v-24c0-1.1-0.9-2-2-2
					H239.8z"/>
			</g>
			<g>
				<circle class="st18" cx="257.8" cy="79.9" r="7"/>
			</g>
			<g>
				<circle class="st3" cx="267.8" cy="79.9" r="7"/>
			</g>
			<g>
				<rect x="226.8" y="55.9" class="st1" width="52" height="2"/>
			</g>
			<g>
				<rect x="226.8" y="63.9" class="st1" width="13" height="2"/>
			</g>
		</g>
		<g>
			<polygon class="st1" points="266.8,83.4 263.5,80.1 264.7,78.9 266.8,81.1 270.8,77 272,78.2 			"/>
		</g>
		<g>
			<rect x="231.8" y="69.9" class="st1" width="5" height="2"/>
		</g>
		<g>
			<rect x="244.8" y="78.9" class="st1" width="2" height="2"/>
		</g>
		<g>
			<rect x="278.8" y="78.9" class="st1" width="2" height="2"/>
		</g>
		<g>
			<rect x="263.8" y="59.9" class="st1" width="10" height="2"/>
		</g>
		<g>
			<rect x="257.8" y="59.9" class="st1" width="4" height="2"/>
		</g>
	</g>
	<g>
		<g>
			<rect x="27.1" y="233.2" class="st19" width="56" height="4"/>
		</g>
		<g>
			<polygon class="st3" points="83.1,233.2 27.1,233.2 55.1,215.2 			"/>
		</g>
		<g>
			<path class="st1" d="M83.1,234.2h-56c-0.4,0-0.8-0.3-1-0.7s0-0.9,0.4-1.1l28-18c0.3-0.2,0.8-0.2,1.1,0l28,18
				c0.4,0.2,0.5,0.7,0.4,1.1S83.6,234.2,83.1,234.2z M30.5,232.2h49.2l-24.6-15.8L30.5,232.2z"/>
		</g>
		<g>
			<g>
				<rect x="31.1" y="241.2" class="st20" width="6" height="18"/>
			</g>
			<g>
				<rect x="29.1" y="237.2" class="st20" width="10" height="4"/>
			</g>
			<g>
				<polygon class="st1" points="40.1,242.2 28.1,242.2 28.1,237.2 30.1,237.2 30.1,240.2 38.1,240.2 38.1,237.2 40.1,237.2 				"/>
			</g>
			<g>
				<rect x="29.1" y="259.2" class="st20" width="10" height="4"/>
			</g>
			<g>
				<polygon class="st1" points="40.1,263.2 38.1,263.2 38.1,260.2 30.1,260.2 30.1,263.2 28.1,263.2 28.1,258.2 40.1,258.2 				"/>
			</g>
			<g>
				<rect x="30.1" y="241.2" class="st1" width="2" height="18"/>
			</g>
			<g>
				<rect x="36.1" y="241.2" class="st1" width="2" height="18"/>
			</g>
		</g>
		<g>
			<g>
				<rect x="45.1" y="241.2" class="st20" width="6" height="18"/>
			</g>
			<g>
				<rect x="43.1" y="237.2" class="st20" width="10" height="4"/>
			</g>
			<g>
				<polygon class="st1" points="54.1,242.2 42.1,242.2 42.1,237.2 44.1,237.2 44.1,240.2 52.1,240.2 52.1,237.2 54.1,237.2 				"/>
			</g>
			<g>
				<rect x="43.1" y="259.2" class="st20" width="10" height="4"/>
			</g>
			<g>
				<polygon class="st1" points="54.1,263.2 52.1,263.2 52.1,260.2 44.1,260.2 44.1,263.2 42.1,263.2 42.1,258.2 54.1,258.2 				"/>
			</g>
			<g>
				<rect x="44.1" y="241.2" class="st1" width="2" height="18"/>
			</g>
			<g>
				<rect x="50.1" y="241.2" class="st1" width="2" height="18"/>
			</g>
		</g>
		<g>
			<g>
				<rect x="59.1" y="241.2" class="st20" width="6" height="18"/>
			</g>
			<g>
				<rect x="57.1" y="237.2" class="st20" width="10" height="4"/>
			</g>
			<g>
				<polygon class="st1" points="68.1,242.2 56.1,242.2 56.1,237.2 58.1,237.2 58.1,240.2 66.1,240.2 66.1,237.2 68.1,237.2 				"/>
			</g>
			<g>
				<rect x="57.1" y="259.2" class="st20" width="10" height="4"/>
			</g>
			<g>
				<polygon class="st1" points="68.1,263.2 66.1,263.2 66.1,260.2 58.1,260.2 58.1,263.2 56.1,263.2 56.1,258.2 68.1,258.2 				"/>
			</g>
			<g>
				<rect x="58.1" y="241.2" class="st1" width="2" height="18"/>
			</g>
			<g>
				<rect x="64.1" y="241.2" class="st1" width="2" height="18"/>
			</g>
		</g>
		<g>
			<g>
				<rect x="73.1" y="241.2" class="st20" width="6" height="18"/>
			</g>
			<g>
				<rect x="71.1" y="237.2" class="st20" width="10" height="4"/>
			</g>
			<g>
				<polygon class="st1" points="82.1,242.2 70.1,242.2 70.1,237.2 72.1,237.2 72.1,240.2 80.1,240.2 80.1,237.2 82.1,237.2 				"/>
			</g>
			<g>
				<rect x="71.1" y="259.2" class="st20" width="10" height="4"/>
			</g>
			<g>
				<polygon class="st1" points="82.1,263.2 80.1,263.2 80.1,260.2 72.1,260.2 72.1,263.2 70.1,263.2 70.1,258.2 82.1,258.2 				"/>
			</g>
			<g>
				<rect x="72.1" y="241.2" class="st1" width="2" height="18"/>
			</g>
			<g>
				<rect x="78.1" y="241.2" class="st1" width="2" height="18"/>
			</g>
		</g>
		<g>
			<rect x="27.1" y="263.2" class="st19" width="56" height="5"/>
		</g>
		<g>
			<path class="st1" d="M84.1,269.2h-58v-7h58V269.2z M28.1,267.2h54v-3h-54V267.2z"/>
		</g>
		<g>
			<path class="st1" d="M83.1,238.2h-56c-0.6,0-1-0.4-1-1v-4h2v3h54v-3h2v4C84.1,237.7,83.7,238.2,83.1,238.2z"/>
		</g>
		<g>
			<circle class="st20" cx="55.1" cy="225.2" r="4"/>
		</g>
	</g>
	<g>
		<g>
			<g>
				<path class="st2" d="M482.8,264.5c0,1-0.8,1.9-1.9,1.9h-68.6c-1,0-1.9-0.8-1.9-1.9v-48.9c0-1,0.8-1.9,1.9-1.9h68.6
					c1,0,1.9,0.8,1.9,1.9V264.5z"/>
			</g>
			<g>
				<path class="st1" d="M480.9,267.3h-68.6c-1.6,0-2.8-1.3-2.8-2.8v-48.9c0-1.6,1.3-2.8,2.8-2.8h68.6c1.6,0,2.8,1.3,2.8,2.8v48.9
					C483.7,266,482.5,267.3,480.9,267.3z M412.3,214.6c-0.5,0-0.9,0.4-0.9,0.9v48.9c0,0.5,0.4,0.9,0.9,0.9h68.6
					c0.5,0,0.9-0.4,0.9-0.9v-48.9c0-0.5-0.4-0.9-0.9-0.9L412.3,214.6L412.3,214.6z"/>
			</g>
			<g>
				<rect x="415" y="218.8" class="st0" width="63.3" height="42.6"/>
			</g>
			<g>
				<rect x="422.8" y="225.8" class="st4" width="28.6" height="3.9"/>
			</g>
			<g class="st21">
				<rect x="422.8" y="236" class="st4" width="47.6" height="2.5"/>
			</g>
			<g class="st21">
				<rect x="422.8" y="241" class="st4" width="30.4" height="2.5"/>
			</g>
			<g class="st21">
				<rect x="422.8" y="246" class="st4" width="15" height="2.5"/>
			</g>
			<g>
				<g id="XMLID_154_">
					<polygon class="st22" points="463.8,262.6 458.8,260.6 453.8,262.6 453.8,248.7 463.8,248.7 					"/>
				</g>
				<g id="XMLID_153_">
					<polygon class="st1" points="464.7,264 458.8,261.6 452.8,264 452.8,255.4 454.7,255.4 454.7,261.2 458.8,259.5 462.8,261.2 
						462.8,255.4 464.7,255.4 					"/>
				</g>
				<g id="XMLID_152_">
					<path class="st0" d="M466.3,248.3c0,0.9-1.4,1.6-1.7,2.4c-0.4,0.8,0.1,2.3-0.5,2.9c-0.6,0.6-2.1,0.2-2.9,0.5
						c-0.8,0.3-1.5,1.7-2.4,1.7c-0.9,0-1.6-1.4-2.4-1.7c-0.9-0.4-2.3,0.1-2.9-0.5c-0.6-0.6-0.2-2.1-0.5-2.9
						c-0.3-0.8-1.7-1.5-1.7-2.4c0-0.9,1.4-1.6,1.7-2.4c0.4-0.9-0.1-2.3,0.5-2.9c0.6-0.6,2.1-0.2,2.9-0.5c0.8-0.3,1.5-1.7,2.4-1.7
						c0.9,0,1.6,1.4,2.4,1.7c0.8,0.4,2.3-0.1,2.9,0.5c0.6,0.6,0.2,2.1,0.5,2.9C465,246.7,466.3,247.3,466.3,248.3z"/>
				</g>
				<g id="XMLID_151_">
					<path class="st1" d="M458.8,256.8c-0.9,0-1.6-0.7-2.1-1.2c-0.2-0.2-0.5-0.5-0.7-0.6c-0.2-0.1-0.6-0.1-0.9-0.1
						c-0.7,0-1.7,0-2.3-0.6c-0.6-0.6-0.6-1.6-0.6-2.3c0-0.3,0-0.7-0.1-0.9c-0.1-0.2-0.4-0.4-0.6-0.7c-0.5-0.5-1.2-1.2-1.2-2.1
						c0-0.9,0.7-1.6,1.2-2.1c0.2-0.2,0.5-0.5,0.6-0.7c0.1-0.2,0.1-0.6,0.1-0.9c0-0.7,0-1.6,0.6-2.3c0.6-0.6,1.6-0.6,2.3-0.6
						c0.4,0,0.7,0,0.9-0.1c0.2-0.1,0.4-0.3,0.7-0.6c0.5-0.5,1.2-1.2,2.1-1.2c0.9,0,1.6,0.7,2.1,1.2c0.2,0.2,0.5,0.5,0.7,0.6
						c0.2,0.1,0.6,0.1,0.9,0.1c0.7,0,1.7,0,2.3,0.6c0.6,0.6,0.6,1.6,0.6,2.3c0,0.4,0,0.7,0.1,0.9c0.1,0.2,0.3,0.4,0.6,0.7
						c0.5,0.5,1.2,1.2,1.2,2.1c0,0.9-0.7,1.6-1.2,2.1c-0.2,0.2-0.5,0.5-0.6,0.7c-0.1,0.2-0.1,0.6-0.1,0.9c0,0.7,0,1.7-0.6,2.3
						c-0.6,0.6-1.6,0.6-2.3,0.6c-0.4,0-0.7,0-0.9,0.1c-0.2,0.1-0.4,0.3-0.7,0.6C460.4,256.1,459.7,256.8,458.8,256.8z M455.1,253
						c0.5,0,1.1,0,1.6,0.2c0.5,0.2,0.9,0.6,1.3,1c0.2,0.2,0.6,0.6,0.8,0.6c0.1,0,0.6-0.4,0.8-0.6c0.4-0.4,0.8-0.8,1.3-1
						c0.5-0.2,1.1-0.2,1.7-0.2c0.3,0,0.8,0,1-0.1c0.1-0.1,0.1-0.7,0.1-0.9c0-0.5,0-1.1,0.2-1.7c0.2-0.5,0.6-0.9,1-1.3
						c0.2-0.2,0.6-0.6,0.6-0.8c0-0.2-0.4-0.6-0.6-0.8c-0.4-0.4-0.8-0.8-1-1.3c-0.2-0.5-0.2-1.1-0.2-1.7c0-0.3,0-0.8-0.1-1
						c-0.1-0.1-0.7-0.1-0.9-0.1c-0.5,0-1.1,0-1.7-0.2c-0.5-0.2-0.9-0.6-1.3-1c-0.2-0.2-0.6-0.6-0.8-0.6c-0.2,0-0.6,0.4-0.8,0.6
						c-0.4,0.4-0.8,0.8-1.3,1c-0.5,0.2-1.1,0.2-1.7,0.2c-0.3,0-0.8,0-1,0.1c-0.1,0.1-0.1,0.7-0.1,0.9c0,0.5,0,1.1-0.2,1.7
						c-0.2,0.5-0.6,0.9-1,1.3c-0.2,0.2-0.6,0.6-0.6,0.8c0,0.1,0.4,0.6,0.6,0.8c0.4,0.4,0.8,0.8,1,1.3c0.2,0.5,0.2,1.1,0.2,1.7
						c0,0.3,0,0.8,0.1,1C454.2,253,454.8,253,455.1,253C455.1,253,455.1,253,455.1,253z"/>
				</g>
				<g id="XMLID_150_">
					<circle class="st4" cx="458.8" cy="248.3" r="3.7"/>
				</g>
			</g>
		</g>
	</g>
</g>
</svg>
