<?xml version="1.0" encoding="utf-8"?>
<!-- Generator: Adobe Illustrator 22.0.1, SVG Export Plug-In . SVG Version: 6.00 Build 0)  -->
<svg version="1.1" xmlns="http://www.w3.org/2000/svg" xmlns:xlink="http://www.w3.org/1999/xlink" x="0px" y="0px"
	 viewBox="0 0 520 520" style="enable-background:new 0 0 520 520;" xml:space="preserve">
<style type="text/css">
	.st0{fill:url(#SVGID_1_);}
	.st1{fill:url(#SVGID_2_);}
	.st2{fill:url(#SVGID_3_);}
</style>
<g id="Layer_2">
</g>
<g id="Layer_3">
	<g>
		<linearGradient id="SVGID_1_" gradientUnits="userSpaceOnUse" x1="2.8016" y1="7.6769" x2="511.2865" y2="502.8284">
			<stop  offset="0" style="stop-color:#003394;stop-opacity:0.25"/>
			<stop  offset="1" style="stop-color:#0B0094;stop-opacity:0.5"/>
		</linearGradient>
		<rect class="st0" width="530" height="526"/>
	</g>
</g>
<g id="Layer_1">
	<g>
		
			<linearGradient id="SVGID_2_" gradientUnits="userSpaceOnUse" x1="-369.1469" y1="-40.019" x2="143.973" y2="-40.019" gradientTransform="matrix(0.5002 -1.2856 1.021 0.3973 293.1032 179.2951)">
			<stop  offset="0" style="stop-color:#5586FF"/>
			<stop  offset="0.266" style="stop-color:#3C61F2;stop-opacity:0.734"/>
			<stop  offset="0.7646" style="stop-color:#1120DD;stop-opacity:0.2354"/>
			<stop  offset="1" style="stop-color:#0007D4;stop-opacity:0"/>
		</linearGradient>
		<path class="st1" d="M576.4,81.1L69-116.4c0,0,321.7,64.2,225.4,347.6c-92.2,271.4,106.8,299.9,106.8,299.9l-79.9,205.6
			L576.4,81.1z"/>
	</g>
</g>
<g id="Layer_4">
	<g>
		
			<linearGradient id="SVGID_3_" gradientUnits="userSpaceOnUse" x1="-299.0411" y1="-58.511" x2="92.974" y2="-58.511" gradientTransform="matrix(-1.4185 0.1153 -9.811011e-02 -1.2069 108.7037 192.9988)">
			<stop  offset="0" style="stop-color:#5586FF"/>
			<stop  offset="0.266" style="stop-color:#3C61F2;stop-opacity:0.734"/>
			<stop  offset="0.7646" style="stop-color:#1120DD;stop-opacity:0.2354"/>
			<stop  offset="1" style="stop-color:#0007D4;stop-opacity:0"/>
		</linearGradient>
		<path class="st2" d="M-32.7,44.9L4.6,503.2c0,0-66.7-268.3,167.3-298.4C396,176,346.7,14.1,346.7,14.1L520,0
			c-46.2,33.2-172.9,114.5-345.3,103.4C84.5,97.6,13.1,68.6-32.7,44.9z"/>
	</g>
</g>
</svg>
