<?xml version="1.0" encoding="utf-8"?>
<!-- Generator: Adobe Illustrator 22.0.1, SVG Export Plug-In . SVG Version: 6.00 Build 0)  -->
<svg version="1.1"
	 id="svg2" inkscape:export-filename="/home/marcel/Desktop/personal/tagjam18/wallpaper1.png" inkscape:export-xdpi="90" inkscape:export-ydpi="90" inkscape:version="0.48.4 r9939" sodipodi:docname="wallpaper1.svg" xmlns:cc="http://creativecommons.org/ns#" xmlns:dc="http://purl.org/dc/elements/1.1/" xmlns:inkscape="http://www.inkscape.org/namespaces/inkscape" xmlns:rdf="http://www.w3.org/1999/02/22-rdf-syntax-ns#" xmlns:sodipodi="http://sodipodi.sourceforge.net/DTD/sodipodi-0.dtd" xmlns:svg="http://www.w3.org/2000/svg"
	 xmlns="http://www.w3.org/2000/svg" xmlns:xlink="http://www.w3.org/1999/xlink" x="0px" y="0px" viewBox="0 0 2640.4 1116"
	 style="enable-background:new 0 0 2640.4 1116;" xml:space="preserve">
<style type="text/css">
	.st0{fill:#001820;stroke:#001820;stroke-width:4.7957;stroke-linecap:round;stroke-linejoin:round;}
	.st1{fill:#001820;stroke:#001820;stroke-width:4.145;stroke-linecap:round;stroke-linejoin:round;}
	.st2{fill:#001820;stroke:#001820;stroke-width:3.257;stroke-linecap:round;stroke-linejoin:round;}
	.st3{fill:#001820;stroke:#001820;stroke-width:3.5897;stroke-linecap:round;stroke-linejoin:round;}
	.st4{fill:#001820;stroke:#001820;stroke-width:4.36;stroke-linecap:round;stroke-linejoin:round;}
	.st5{fill:#001820;stroke:#001820;stroke-width:3.49;stroke-linecap:round;stroke-linejoin:round;}
	.st6{fill:#001820;stroke:#001820;stroke-width:3.5027;stroke-linecap:round;stroke-linejoin:round;}
	.st7{fill:#001820;stroke:#001820;stroke-width:3.3405;stroke-linecap:round;stroke-linejoin:round;}
	.st8{fill:#001820;stroke:#001820;stroke-width:6.5293;stroke-linecap:round;stroke-linejoin:round;}
	.st9{fill:#001820;stroke:#001820;stroke-width:5.3223;stroke-linecap:round;stroke-linejoin:round;}
	.st10{fill:#001820;stroke:#001820;stroke-width:4.0222;stroke-linecap:round;stroke-linejoin:round;}
	.st11{fill:#001820;stroke:#001820;stroke-width:5.6652;stroke-linecap:round;stroke-linejoin:round;}
	.st12{fill:#001820;stroke:#001820;stroke-width:4.7253;stroke-linecap:round;stroke-linejoin:round;}
	.st13{fill:#001820;stroke:#001820;stroke-width:3.6836;stroke-linecap:round;stroke-linejoin:round;}
	.st14{fill:#001820;stroke:#001820;stroke-width:3.1892;stroke-linecap:round;stroke-linejoin:round;}
	.st15{fill:#001820;stroke:#001820;stroke-width:0.9762;stroke-linecap:round;stroke-linejoin:round;}
	.st16{fill:#001820;stroke:#001820;stroke-width:2.2084;stroke-linecap:round;stroke-linejoin:round;}
	.st17{display:none;}
	.st18{display:inline;fill:#001820;stroke:#001820;stroke-width:4.145;stroke-linecap:round;stroke-linejoin:round;}
	.st19{display:inline;fill:#013D53;}
	.st20{font-family:'Arial-BoldMT';}
	.st21{font-size:66.6393px;}
	.st22{fill:none;stroke:#001820;stroke-width:0.9762;stroke-linecap:round;stroke-linejoin:round;}
	.st23{fill:none;stroke:#001820;stroke-width:6.5293;stroke-linecap:round;stroke-linejoin:round;}
	.st24{fill:none;stroke:#001820;stroke-width:3.1892;stroke-linecap:round;stroke-linejoin:round;}
</style>
<g id="layer3" inkscape:groupmode="layer" inkscape:label="City">
	<rect id="rect3871" x="1353.8" y="849.6" class="st0" width="134.8" height="328.2"/>
	<rect id="rect3873" x="1518.3" y="759" class="st0" width="134.8" height="328.2"/>
	<rect id="rect3875" x="1674.3" y="863.7" class="st1" width="100.5" height="329"/>
	<rect id="rect3877" x="1614.5" y="974.7" class="st2" width="101.4" height="201.3"/>
	<rect id="rect3879" x="1448.9" y="934.5" class="st3" width="101.1" height="245.3"/>
	<rect id="rect3881" x="1872.5" y="837.8" class="st1" width="100.5" height="329"/>
	<rect id="rect3883" x="1749.9" y="936.6" class="st4" width="143.4" height="255.1"/>
	<rect id="rect3885" x="2011.4" y="726.3" class="st1" width="100.5" height="329"/>
	<rect id="rect3887" x="1951.7" y="957.1" class="st5" width="101.2" height="231.7"/>
	<rect id="rect3889" x="2151.2" y="808.6" class="st6" width="83.6" height="282.3"/>
	<rect id="rect3891" x="2085.1" y="976.4" class="st7" width="101.3" height="211.9"/>
	<rect id="rect3893" x="2302.5" y="860.4" class="st8" width="251.6" height="326"/>
	<rect id="rect3895" x="2189.9" y="972.8" class="st9" width="252.9" height="215.5"/>
	<rect id="rect3897" x="2601.3" y="760.6" class="st1" width="100.5" height="329"/>
	<rect id="rect3899" x="2537.1" y="957.3" class="st10" width="146.4" height="212.6"/>
	
		<path id="path3901" inkscape:connector-curvature="0" inkscape:transform-center-x="-0.080682564" inkscape:transform-center-y="-6.2013486" sodipodi:nodetypes="ccccc" class="st11" d="
		M2233.2,805.8l-40.2,0.1l-40.2,0.1c9.4-24.6,29.5-110.6,39.9-134.4C2204.3,696.6,2224.6,780.1,2233.2,805.8L2233.2,805.8z"/>
	<g id="g3914" transform="matrix(1.2057863,0,0,1.1989209,354.93848,65.05582)">
		
			<path id="path3903" inkscape:connector-curvature="0" inkscape:transform-center-x="-0.080682564" inkscape:transform-center-y="-6.2013486" sodipodi:nodetypes="ccccc" class="st12" d="
			M1648.8,662.2l-33.5,0.1l16.6-24.1l16.6-24.1C1648.5,614.2,1648.6,661.6,1648.8,662.2L1648.8,662.2z"/>
		
			<path id="path3906" inkscape:connector-curvature="0" inkscape:transform-center-x="-0.080682564" inkscape:transform-center-y="-6.2013486" sodipodi:nodetypes="ccccc" class="st12" d="
			M1692.6,662.2l-33.5,0.1l16.6-24.1l16.6-24.1C1692.3,614.2,1692.4,661.6,1692.6,662.2L1692.6,662.2z"/>
		
			<path id="path3908" inkscape:connector-curvature="0" inkscape:transform-center-x="-0.080682564" inkscape:transform-center-y="-6.2013486" sodipodi:nodetypes="ccccc" class="st12" d="
			M1736.4,662.2l-33.5,0.1l16.6-24.1l16.6-24.1C1736.2,614.2,1736.3,661.6,1736.4,662.2L1736.4,662.2z"/>
		
			<path id="path3910" inkscape:connector-curvature="0" inkscape:transform-center-x="-0.080682564" inkscape:transform-center-y="-6.2013486" sodipodi:nodetypes="ccccc" class="st12" d="
			M1780.3,662.2l-33.5,0.1l16.6-24.1l16.6-24.1C1780,614.2,1780.1,661.6,1780.3,662.2L1780.3,662.2z"/>
		
			<path id="path3912" inkscape:connector-curvature="0" inkscape:transform-center-x="-0.080682564" inkscape:transform-center-y="-6.2013486" sodipodi:nodetypes="ccccc" class="st12" d="
			M1824.1,662.2l-33.5,0.1l16.6-24.1l16.6-24.1C1823.8,614.2,1823.9,661.6,1824.1,662.2L1824.1,662.2z"/>
	</g>
	<rect id="rect3922" x="2022" y="664.2" class="st13" width="79.2" height="208.8"/>
	<rect id="rect3924" x="2032" y="559" class="st14" width="59.2" height="209.2"/>
	<rect id="rect3926" x="2059.6" y="525.2" class="st15" width="4.1" height="114.6"/>
	<rect id="rect3928" x="2499.5" y="579.6" class="st16" width="28.3" height="331.5"/>
	<rect id="rect3930" x="2441.9" y="579.6" class="st16" width="28.3" height="331.5"/>
	<polygon id="rect3998" class="st1" points="2693.8,1003.4 2791.7,1030.5 2730,1351.1 2632.1,1324 	"/>
	<polygon id="rect4000" class="st1" points="1379.3,1008.8 1281.4,1035.9 1343.1,1356.5 1441,1329.4 	"/>
</g>
<g id="layer4" inkscape:groupmode="layer" inkscape:label="Borders" class="st17">
	<rect id="rect3152" x="737.7" y="-38.4" class="st18" width="2103.5" height="134.1"/>
	<rect id="rect3154" x="716.7" y="1055.3" class="st18" width="2103.5" height="134.1"/>
</g>
<g class="st17">
	<text transform="matrix(1.1774 -0.3146 4.165985e-02 0.9991 1596.3405 649.6988)" class="st19 st20 st21">CSS</text>
</g>
<g id="layer3_1_" inkscape:groupmode="layer" inkscape:label="City">
	<rect id="rect3871_1_" x="61.5" y="776.4" class="st0" width="134.8" height="328.2"/>
	<rect id="rect3873_1_" x="226" y="685.9" class="st0" width="134.8" height="328.2"/>
	<rect id="rect3875_1_" x="382" y="636.5" class="st1" width="100.5" height="483.1"/>
	<rect id="rect3877_1_" x="322.2" y="901.6" class="st2" width="101.4" height="201.3"/>
	<rect id="rect3879_1_" x="156.6" y="861.3" class="st3" width="101.1" height="245.3"/>
	<rect id="rect3881_1_" x="580.2" y="598.5" class="st1" width="100.5" height="483.1"/>
	<rect id="rect3883_1_" x="457.7" y="743.5" class="st4" width="143.4" height="374.5"/>
	<rect id="rect3885_1_" x="719.1" y="653.1" class="st1" width="100.5" height="329"/>
	<rect id="rect3887_1_" x="659.4" y="883.9" class="st5" width="101.2" height="231.7"/>
	<rect id="rect3889_1_" x="858.9" y="735.4" class="st6" width="83.6" height="282.3"/>
	<rect id="rect3891_1_" x="792.8" y="903.2" class="st7" width="101.3" height="211.9"/>
	<rect id="rect3893_1_" x="1010.2" y="787.2" class="st8" width="251.6" height="326"/>
	<rect id="rect3895_1_" x="897.7" y="899.6" class="st9" width="252.9" height="215.5"/>
	<rect id="rect3897_1_" x="1309" y="687.5" class="st1" width="100.5" height="329"/>
	<rect id="rect3899_1_" x="1244.8" y="884.1" class="st10" width="146.4" height="212.6"/>
	
		<path id="path3901_1_" inkscape:connector-curvature="0" inkscape:transform-center-x="-0.080682564" inkscape:transform-center-y="-6.2013486" sodipodi:nodetypes="ccccc" class="st11" d="
		M941,732.7l-40.2,0.1l-40.2,0.1c9.4-24.6,29.5-110.6,39.9-134.4C912.1,623.4,932.3,707,941,732.7L941,732.7z"/>
	<g id="g3914_1_" transform="matrix(1.2057863,0,0,1.1989209,354.93848,65.05582)">
		
			<path id="path3903_1_" inkscape:connector-curvature="0" inkscape:transform-center-x="-0.080682564" inkscape:transform-center-y="-6.2013486" sodipodi:nodetypes="ccccc" class="st12" d="
			M577,601.2l-33.5,0.1l16.6-24.1l16.6-24.1C576.8,553.2,576.9,600.6,577,601.2L577,601.2z"/>
		
			<path id="path3906_1_" inkscape:connector-curvature="0" inkscape:transform-center-x="-0.080682564" inkscape:transform-center-y="-6.2013486" sodipodi:nodetypes="ccccc" class="st12" d="
			M620.9,601.2l-33.5,0.1l16.6-24.1l16.6-24.1C620.6,553.2,620.7,600.6,620.9,601.2L620.9,601.2z"/>
		
			<path id="path3908_1_" inkscape:connector-curvature="0" inkscape:transform-center-x="-0.080682564" inkscape:transform-center-y="-6.2013486" sodipodi:nodetypes="ccccc" class="st12" d="
			M664.7,601.2l-33.5,0.1l16.6-24.1l16.6-24.1C664.4,553.2,664.5,600.6,664.7,601.2L664.7,601.2z"/>
		
			<path id="path3910_1_" inkscape:connector-curvature="0" inkscape:transform-center-x="-0.080682564" inkscape:transform-center-y="-6.2013486" sodipodi:nodetypes="ccccc" class="st12" d="
			M708.5,601.2l-33.5,0.1l16.6-24.1l16.6-24.1C708.3,553.2,708.4,600.6,708.5,601.2L708.5,601.2z"/>
		
			<path id="path3912_1_" inkscape:connector-curvature="0" inkscape:transform-center-x="-0.080682564" inkscape:transform-center-y="-6.2013486" sodipodi:nodetypes="ccccc" class="st12" d="
			M752.4,601.2l-33.5,0.1l16.6-24.1l16.6-24.1C752.1,553.2,752.2,600.6,752.4,601.2L752.4,601.2z"/>
	</g>
	<rect id="rect3922_1_" x="729.7" y="470.2" class="st13" width="79.2" height="329.6"/>
	<rect id="rect3924_1_" x="739.7" y="304.2" class="st14" width="59.2" height="330.3"/>
	<rect id="rect3926_1_" x="767.3" y="250.8" class="st15" width="4.1" height="180.9"/>
	<rect id="rect3928_1_" x="1207.2" y="506.5" class="st16" width="28.3" height="331.5"/>
	<rect id="rect3930_1_" x="1149.7" y="506.5" class="st16" width="28.3" height="331.5"/>
	<polygon id="rect3998_1_" class="st1" points="1401.5,930.3 1499.4,957.3 1437.7,1278 1339.8,1250.9 	"/>
	<polygon id="rect4000_1_" class="st1" points="75.2,835.3 -24.4,819.4 -60.6,1145.5 39,1161.4 	"/>
</g>
<polyline id="rect3924_2_" class="st14" points="398.4,902.9 398.4,572.7 457.7,572.7 457.7,902.9 "/>
<line id="rect3926_3_" class="st22" x1="426" y1="917.8" x2="426" y2="468.1"/>
<line id="rect3926_2_" class="st22" x1="430.1" y1="468.1" x2="430.1" y2="917.8"/>
<path id="path3901_2_" inkscape:connector-curvature="0" inkscape:transform-center-x="-0.080682564" inkscape:transform-center-y="-6.2013486" sodipodi:nodetypes="ccccc" class="st11" d="
	M670.6,676.6l-40.2,0.1l-40.2,0.1c9.4-24.6,29.5-110.6,39.9-134.4C641.7,567.3,661.9,650.9,670.6,676.6L670.6,676.6z"/>
<ellipse class="st11" cx="280.6" cy="676.9" rx="22.9" ry="27.5"/>
<path id="path3901_3_" inkscape:connector-curvature="0" inkscape:transform-center-x="-0.080682564" inkscape:transform-center-y="-6.2013486" sodipodi:nodetypes="ccccc" class="st11" d="
	M175.9,797.6l-40.2,0.1l-40.2,0.1c9.4-24.6,29.5-110.6,39.9-134.4C147,688.4,167.2,772,175.9,797.6L175.9,797.6z"/>
<path class="st1" d="M2874,1356.5H-96.3c-6.6,0-12-5.4-12-12V996c0-6.6,5.4-12,12-12H2874c6.6,0,12,5.4,12,12v348.5
	C2886,1351.1,2880.6,1356.5,2874,1356.5z"/>
<line id="rect3893_2_" class="st23" x1="1584.1" y1="893.2" x2="1586.2" y2="671.7"/>
<path id="path3903_2_" inkscape:connector-curvature="0" inkscape:transform-center-x="-0.080682564" inkscape:transform-center-y="-6.2013486" sodipodi:nodetypes="ccccc" class="st12" d="
	M1690.8,877.8l20-28.8l20-28.8c0,0,38.6,42.8,38.8,43.6l-38.5,13.9L1690.8,877.8"/>
<path id="path3906_2_" inkscape:connector-curvature="0" inkscape:transform-center-x="-0.080682564" inkscape:transform-center-y="-6.2013486" sodipodi:nodetypes="ccccc" class="st12" d="
	M1845.1,951.8l-40.4,0.1l-88.7-34.2l129.1-56.5"/>
<line id="rect3893_3_" class="st23" x1="1613.1" y1="938.1" x2="1615.2" y2="716.5"/>
<line id="rect3893_4_" class="st23" x1="1387.5" y1="936.9" x2="1390.3" y2="635.2"/>
<polyline id="rect3928_2_" class="st16" points="1473.4,967.2 1473.4,543.4 1531.6,635.7 1531.6,967.2 "/>
<polyline id="rect3930_2_" class="st16" points="1445.7,967.2 1445.7,543.4 1474,543.4 1474,967.2 "/>
<polyline id="rect3873_2_" class="st0" points="2103.4,1177.5 2103.4,849.3 2238.2,849.3 2238.2,1177.5 "/>
<polyline id="rect3875_2_" class="st1" points="2259.4,1283 2259.4,799.9 2359.9,799.9 "/>
<line id="rect3924_3_" class="st24" x1="2275.8" y1="1066.3" x2="2275.8" y2="736.1"/>
<line id="rect3926_5_" class="st22" x1="2303.4" y1="1081.2" x2="2303.4" y2="631.5"/>
<line id="rect3926_4_" class="st22" x1="2307.4" y1="631.5" x2="2307.4" y2="1081.2"/>
<ellipse class="st11" cx="2157.9" cy="840.3" rx="22.9" ry="27.5"/>
<path id="path3901_4_" inkscape:connector-curvature="0" inkscape:transform-center-x="-0.080682564" inkscape:transform-center-y="-6.2013486" sodipodi:nodetypes="ccccc" class="st11" d="
	M1937.2,911.1c9.4-24.6,65.2-60.4,75.6-84.2c11.6,24.9,31.8,108.5,40.5,134.1"/>
</svg>
