<?xml version="1.0" encoding="utf-8"?>
<!-- Generator: Adobe Illustrator 22.0.1, SVG Export Plug-In . SVG Version: 6.00 Build 0)  -->
<svg version="1.1" id="Layer_1" xmlns="http://www.w3.org/2000/svg" xmlns:xlink="http://www.w3.org/1999/xlink" x="0px" y="0px"
	 viewBox="0 0 448 512" style="enable-background:new 0 0 448 512;" xml:space="preserve">
<path d="M400,32H48C21.5,32,0,53.5,0,80v352c0,26.5,21.5,48,48,48h352c26.5,0,48-21.5,48-48V80C448,53.5,426.5,32,400,32z M416,432
	c0,8.8-7.2,16-16,16H48c-8.8,0-16-7.2-16-16V80c0-8.8,7.2-16,16-16h352c8.8,0,16,7.2,16,16V432z M348.9,107.7
	c-15.6-15.6-40.9-15.6-56.6,0L72,328l-7.9,71.4C63,409,71.1,417,80.7,416l71.3-8l220.3-220.3c15.6-15.6,15.6-40.9,0-56.6
	C372.3,131.1,348.9,107.7,348.9,107.7z M137.3,377.4l-39.1,4.3l4.3-39.1l162.7-162.7l34.7,34.7L137.3,377.4L137.3,377.4z
	 M349.7,165.1l-27,27L288,157.4l27-27c3.1-3.1,8.2-3.1,11.3,0l23.4,23.4C352.8,156.9,352.8,162,349.7,165.1L349.7,165.1z"/>
</svg>
