<?xml version="1.0" encoding="utf-8"?>
<!-- Generator: Adobe Illustrator 22.0.1, SVG Export Plug-In . SVG Version: 6.00 Build 0)  -->
<svg version="1.1"
	 id="svg2" inkscape:export-filename="/home/marcel/Desktop/personal/tagjam18/wallpaper1.png" inkscape:export-xdpi="90" inkscape:export-ydpi="90" inkscape:version="0.48.4 r9939" sodipodi:docname="wallpaper1.svg" xmlns:cc="http://creativecommons.org/ns#" xmlns:dc="http://purl.org/dc/elements/1.1/" xmlns:inkscape="http://www.inkscape.org/namespaces/inkscape" xmlns:rdf="http://www.w3.org/1999/02/22-rdf-syntax-ns#" xmlns:sodipodi="http://sodipodi.sourceforge.net/DTD/sodipodi-0.dtd" xmlns:svg="http://www.w3.org/2000/svg"
	 xmlns="http://www.w3.org/2000/svg" xmlns:xlink="http://www.w3.org/1999/xlink" x="0px" y="0px" viewBox="0 0 2640.4 876"
	 style="enable-background:new 0 0 2640.4 876;" xml:space="preserve">
<style type="text/css">
	.st0{display:none;}
	.st1{display:inline;fill:#001820;stroke:#001820;stroke-width:4.145;stroke-linecap:round;stroke-linejoin:round;}
	.st2{display:inline;fill:#013D53;}
	.st3{font-family:'Arial-BoldMT';}
	.st4{font-size:66.6393px;}
</style>
<g id="layer3" inkscape:groupmode="layer" inkscape:label="City">
	<rect id="rect3871" x="1353.8" y="609.6" width="134.8" height="328.2"/>
	<rect id="rect3873" x="1518.3" y="519" width="134.8" height="328.2"/>
	<rect id="rect3875" x="1674.3" y="623.7" width="100.5" height="329"/>
	<rect id="rect3877" x="1614.5" y="734.7" width="101.4" height="201.3"/>
	<rect id="rect3879" x="1448.9" y="694.5" width="101.1" height="245.3"/>
	<rect id="rect3881" x="1872.5" y="597.8" width="100.5" height="329"/>
	<rect id="rect3883" x="1749.9" y="696.6" width="143.4" height="255.1"/>
	<rect id="rect3885" x="2011.4" y="486.3" width="100.5" height="329"/>
	<rect id="rect3887" x="1951.7" y="717.1" width="101.2" height="231.7"/>
	<rect id="rect3889" x="2151.2" y="568.6" width="83.6" height="282.3"/>
	<rect id="rect3891" x="2085.1" y="736.4" width="101.3" height="211.9"/>
	<rect id="rect3893" x="2302.5" y="620.4" width="251.6" height="326"/>
	<rect id="rect3895" x="2189.9" y="732.8" width="252.9" height="215.5"/>
	<rect id="rect3897" x="2601.3" y="520.6" width="100.5" height="329"/>
	<rect id="rect3899" x="2537.1" y="717.3" width="146.4" height="212.6"/>
	
		<path id="path3901" inkscape:connector-curvature="0" inkscape:transform-center-x="-0.080682564" inkscape:transform-center-y="-6.2013486" sodipodi:nodetypes="ccccc" d="
		M2233.2,565.8l-40.2,0.1l-40.2,0.1c9.4-24.6,29.5-110.6,39.9-134.4C2204.3,456.6,2224.6,540.1,2233.2,565.8L2233.2,565.8z"/>
	<g id="g3914" transform="matrix(1.2057863,0,0,1.1989209,354.93848,65.05582)">
		
			<path id="path3903" inkscape:connector-curvature="0" inkscape:transform-center-x="-0.080682564" inkscape:transform-center-y="-6.2013486" sodipodi:nodetypes="ccccc" d="
			M1648.8,462l-33.5,0.1l16.6-24.1l16.6-24.1C1648.5,414,1648.6,461.4,1648.8,462L1648.8,462z"/>
		
			<path id="path3906" inkscape:connector-curvature="0" inkscape:transform-center-x="-0.080682564" inkscape:transform-center-y="-6.2013486" sodipodi:nodetypes="ccccc" d="
			M1692.6,462l-33.5,0.1l16.6-24.1l16.6-24.1C1692.3,414,1692.4,461.4,1692.6,462L1692.6,462z"/>
		
			<path id="path3908" inkscape:connector-curvature="0" inkscape:transform-center-x="-0.080682564" inkscape:transform-center-y="-6.2013486" sodipodi:nodetypes="ccccc" d="
			M1736.4,462l-33.5,0.1l16.6-24.1l16.6-24.1C1736.2,414,1736.3,461.4,1736.4,462L1736.4,462z"/>
		
			<path id="path3910" inkscape:connector-curvature="0" inkscape:transform-center-x="-0.080682564" inkscape:transform-center-y="-6.2013486" sodipodi:nodetypes="ccccc" d="
			M1780.3,462l-33.5,0.1l16.6-24.1l16.6-24.1C1780,414,1780.1,461.4,1780.3,462L1780.3,462z"/>
		
			<path id="path3912" inkscape:connector-curvature="0" inkscape:transform-center-x="-0.080682564" inkscape:transform-center-y="-6.2013486" sodipodi:nodetypes="ccccc" d="
			M1824.1,462l-33.5,0.1l16.6-24.1l16.6-24.1C1823.8,414,1823.9,461.4,1824.1,462L1824.1,462z"/>
	</g>
	<rect id="rect3922" x="2022" y="424.2" width="79.2" height="208.8"/>
	<rect id="rect3924" x="2032" y="319" width="59.2" height="209.2"/>
	<rect id="rect3926" x="2059.6" y="285.2" width="4.1" height="114.6"/>
	<rect id="rect3928" x="2499.5" y="339.6" width="28.3" height="331.5"/>
	<rect id="rect3930" x="2441.9" y="339.6" width="28.3" height="331.5"/>
	<polygon id="rect3998" points="2693.8,763.4 2791.7,790.5 2730,1111.1 2632.1,1084 	"/>
	<polygon id="rect4000" points="1379.3,768.8 1281.4,795.9 1343.1,1116.5 1441,1089.4 	"/>
</g>
<g id="layer4" inkscape:groupmode="layer" inkscape:label="Borders" class="st0">
	<rect id="rect3152" x="737.7" y="-278.4" class="st1" width="2103.5" height="134.1"/>
	<rect id="rect3154" x="716.7" y="815.3" class="st1" width="2103.5" height="134.1"/>
</g>
<g class="st0">
	<text transform="matrix(1.1774 -0.3146 4.165985e-02 0.9991 1596.3405 409.6988)" class="st2 st3 st4">CSS</text>
</g>
<g id="layer3_1_" inkscape:groupmode="layer" inkscape:label="City">
	<rect id="rect3871_1_" x="61.5" y="536.4" width="134.8" height="328.2"/>
	<rect id="rect3873_1_" x="226" y="445.9" width="134.8" height="328.2"/>
	<rect id="rect3875_1_" x="382" y="396.5" width="100.5" height="483.1"/>
	<rect id="rect3877_1_" x="322.2" y="661.6" width="101.4" height="201.3"/>
	<rect id="rect3879_1_" x="156.6" y="621.3" width="101.1" height="245.3"/>
	<rect id="rect3881_1_" x="580.2" y="358.5" width="100.5" height="483.1"/>
	<rect id="rect3883_1_" x="457.7" y="503.5" width="143.4" height="374.5"/>
	<rect id="rect3885_1_" x="719.1" y="413.1" width="100.5" height="329"/>
	<rect id="rect3887_1_" x="659.4" y="643.9" width="101.2" height="231.7"/>
	<rect id="rect3889_1_" x="858.9" y="495.4" width="83.6" height="282.3"/>
	<rect id="rect3891_1_" x="792.8" y="663.2" width="101.3" height="211.9"/>
	<rect id="rect3893_1_" x="1010.2" y="547.2" width="251.6" height="326"/>
	<rect id="rect3895_1_" x="897.7" y="659.6" width="252.9" height="215.5"/>
	<rect id="rect3897_1_" x="1309" y="447.5" width="100.5" height="329"/>
	<rect id="rect3899_1_" x="1244.8" y="644.1" width="146.4" height="212.6"/>
	
		<path id="path3901_1_" inkscape:connector-curvature="0" inkscape:transform-center-x="-0.080682564" inkscape:transform-center-y="-6.2013486" sodipodi:nodetypes="ccccc" d="
		M941,492.7l-40.2,0.1l-40.2,0.1c9.4-24.6,29.5-110.6,39.9-134.4C912.1,383.4,932.3,467,941,492.7L941,492.7z"/>
	<g id="g3914_1_" transform="matrix(1.2057863,0,0,1.1989209,354.93848,65.05582)">
		
			<path id="path3903_1_" inkscape:connector-curvature="0" inkscape:transform-center-x="-0.080682564" inkscape:transform-center-y="-6.2013486" sodipodi:nodetypes="ccccc" d="
			M577,401l-33.5,0.1l16.6-24.1l16.6-24.1C576.8,353,576.9,400.4,577,401L577,401z"/>
		
			<path id="path3906_1_" inkscape:connector-curvature="0" inkscape:transform-center-x="-0.080682564" inkscape:transform-center-y="-6.2013486" sodipodi:nodetypes="ccccc" d="
			M620.9,401l-33.5,0.1L604,377l16.6-24.1C620.6,353,620.7,400.4,620.9,401L620.9,401z"/>
		
			<path id="path3908_1_" inkscape:connector-curvature="0" inkscape:transform-center-x="-0.080682564" inkscape:transform-center-y="-6.2013486" sodipodi:nodetypes="ccccc" d="
			M664.7,401l-33.5,0.1l16.6-24.1l16.6-24.1C664.4,353,664.5,400.4,664.7,401L664.7,401z"/>
		
			<path id="path3910_1_" inkscape:connector-curvature="0" inkscape:transform-center-x="-0.080682564" inkscape:transform-center-y="-6.2013486" sodipodi:nodetypes="ccccc" d="
			M708.5,401l-33.5,0.1l16.6-24.1l16.6-24.1C708.3,353,708.4,400.4,708.5,401L708.5,401z"/>
		
			<path id="path3912_1_" inkscape:connector-curvature="0" inkscape:transform-center-x="-0.080682564" inkscape:transform-center-y="-6.2013486" sodipodi:nodetypes="ccccc" d="
			M752.4,401l-33.5,0.1l16.6-24.1l16.6-24.1C752.1,353,752.2,400.4,752.4,401L752.4,401z"/>
	</g>
	<rect id="rect3922_1_" x="729.7" y="230.2" width="79.2" height="329.6"/>
	<rect id="rect3924_1_" x="739.7" y="64.2" width="59.2" height="330.3"/>
	<rect id="rect3926_1_" x="767.3" y="10.8" width="4.1" height="180.9"/>
	<rect id="rect3928_1_" x="1207.2" y="266.5" width="28.3" height="331.5"/>
	<rect id="rect3930_1_" x="1149.7" y="266.5" width="28.3" height="331.5"/>
	<polygon id="rect3998_1_" points="1401.5,690.3 1499.4,717.3 1437.7,1038 1339.8,1010.9 	"/>
	<polygon id="rect4000_1_" points="75.2,595.3 -24.4,579.4 -60.6,905.5 39,921.4 	"/>
</g>
<polyline id="rect3924_2_" points="398.4,662.9 398.4,332.7 457.7,332.7 457.7,662.9 "/>
<line id="rect3926_3_" x1="426" y1="677.8" x2="426" y2="228.1"/>
<line id="rect3926_2_" x1="430.1" y1="228.1" x2="430.1" y2="677.8"/>
<path id="path3901_2_" inkscape:connector-curvature="0" inkscape:transform-center-x="-0.080682564" inkscape:transform-center-y="-6.2013486" sodipodi:nodetypes="ccccc" d="
	M670.6,436.6l-40.2,0.1l-40.2,0.1c9.4-24.6,29.5-110.6,39.9-134.4C641.7,327.3,661.9,410.9,670.6,436.6L670.6,436.6z"/>
<ellipse cx="280.6" cy="436.9" rx="22.9" ry="27.5"/>
<path id="path3901_3_" inkscape:connector-curvature="0" inkscape:transform-center-x="-0.080682564" inkscape:transform-center-y="-6.2013486" sodipodi:nodetypes="ccccc" d="
	M175.9,557.6l-40.2,0.1l-40.2,0.1c9.4-24.6,29.5-110.6,39.9-134.4C147,448.4,167.2,532,175.9,557.6L175.9,557.6z"/>
<path d="M2874,1116.5H-96.3c-6.6,0-12-5.4-12-12V756c0-6.6,5.4-12,12-12H2874c6.6,0,12,5.4,12,12v348.5
	C2886,1111.1,2880.6,1116.5,2874,1116.5z"/>
<line id="rect3893_2_" x1="1584.1" y1="653.2" x2="1586.2" y2="431.7"/>
<path id="path3903_2_" inkscape:connector-curvature="0" inkscape:transform-center-x="-0.080682564" inkscape:transform-center-y="-6.2013486" sodipodi:nodetypes="ccccc" d="
	M1690.8,637.8l20-28.8l20-28.8c0,0,38.6,42.8,38.8,43.6l-38.5,13.9L1690.8,637.8"/>
<path id="path3906_2_" inkscape:connector-curvature="0" inkscape:transform-center-x="-0.080682564" inkscape:transform-center-y="-6.2013486" sodipodi:nodetypes="ccccc" d="
	M1845.1,711.8l-40.4,0.1l-88.7-34.2l129.1-56.5"/>
<line id="rect3893_3_" x1="1613.1" y1="698.1" x2="1615.2" y2="476.5"/>
<line id="rect3893_4_" x1="1387.5" y1="696.9" x2="1390.3" y2="395.2"/>
<polyline id="rect3928_2_" points="1473.4,727.2 1473.4,303.4 1531.6,395.7 1531.6,727.2 "/>
<polyline id="rect3930_2_" points="1445.7,727.2 1445.7,303.4 1474,303.4 1474,727.2 "/>
<polyline id="rect3873_2_" points="2103.4,937.5 2103.4,609.3 2238.2,609.3 2238.2,937.5 "/>
<polyline id="rect3875_2_" points="2259.4,1043 2259.4,559.9 2359.9,559.9 "/>
<line id="rect3924_3_" x1="2275.8" y1="826.3" x2="2275.8" y2="496.1"/>
<line id="rect3926_5_" x1="2303.4" y1="841.2" x2="2303.4" y2="391.5"/>
<line id="rect3926_4_" x1="2307.4" y1="391.5" x2="2307.4" y2="841.2"/>
<ellipse cx="2157.9" cy="600.3" rx="22.9" ry="27.5"/>
<path id="path3901_4_" inkscape:connector-curvature="0" inkscape:transform-center-x="-0.080682564" inkscape:transform-center-y="-6.2013486" sodipodi:nodetypes="ccccc" d="
	M1937.2,671.1c9.4-24.6,65.2-60.4,75.6-84.2c11.6,24.9,31.8,108.5,40.5,134.1"/>
</svg>
