<?xml version="1.0" encoding="utf-8"?>
<!-- Generator: Adobe Illustrator 22.0.1, SVG Export Plug-In . SVG Version: 6.00 Build 0)  -->
<svg version="1.1"
	 id="svg2" inkscape:export-filename="/home/marcel/Desktop/personal/tagjam18/wallpaper1.png" inkscape:export-xdpi="90" inkscape:export-ydpi="90" inkscape:version="0.48.4 r9939" sodipodi:docname="wallpaper1.svg" xmlns:cc="http://creativecommons.org/ns#" xmlns:dc="http://purl.org/dc/elements/1.1/" xmlns:inkscape="http://www.inkscape.org/namespaces/inkscape" xmlns:rdf="http://www.w3.org/1999/02/22-rdf-syntax-ns#" xmlns:sodipodi="http://sodipodi.sourceforge.net/DTD/sodipodi-0.dtd" xmlns:svg="http://www.w3.org/2000/svg"
	 xmlns="http://www.w3.org/2000/svg" xmlns:xlink="http://www.w3.org/1999/xlink" x="0px" y="0px" viewBox="0 0 1920 1080"
	 style="enable-background:new 0 0 1920 1080;" xml:space="preserve">
<style type="text/css">
	.st0{fill:#001820;stroke:#001820;}
	.st1{fill:#001820;stroke:#001820;stroke-width:0.9735;}
	.st2{fill:#001820;stroke:#013D53;stroke-width:1.7203;}
	.st3{fill:#009ACF;}
	.st4{fill:#001820;stroke:#001820;stroke-width:1.1989;}
	.st5{fill:#001820;}
	.st6{fill:#001820;stroke:#001820;stroke-width:0.8471;}
	.st7{fill:#001820;stroke:#001820;stroke-width:4;stroke-linecap:round;stroke-linejoin:round;}
	.st8{fill:#001820;stroke:#001820;stroke-width:0.8724;}
	.st9{fill:#001820;stroke:#001820;stroke-width:5.1084;stroke-linecap:round;stroke-linejoin:round;}
	.st10{fill:#009ACF;stroke:#013D53;}
	.st11{fill:#001820;stroke:#001820;stroke-width:0.8957;}
	.st12{fill:#001820;stroke:#001820;stroke-width:0.9382;}
	.st13{fill:#001820;stroke:#001820;stroke-width:5.8132;stroke-linecap:round;stroke-linejoin:round;}
	.st14{fill:#001820;stroke:#013D53;stroke-width:1.3643;}
	.st15{font-family:'Arial-BoldMT';}
	.st16{font-size:87.018px;}
	.st17{fill:#001820;stroke:#001820;stroke-width:4.7957;stroke-linecap:round;stroke-linejoin:round;}
	.st18{fill:#001820;stroke:#001820;stroke-width:4.145;stroke-linecap:round;stroke-linejoin:round;}
	.st19{fill:#001820;stroke:#001820;stroke-width:3.257;stroke-linecap:round;stroke-linejoin:round;}
	.st20{fill:#001820;stroke:#001820;stroke-width:3.5897;stroke-linecap:round;stroke-linejoin:round;}
	.st21{fill:#001820;stroke:#001820;stroke-width:4.36;stroke-linecap:round;stroke-linejoin:round;}
	.st22{fill:#001820;stroke:#001820;stroke-width:3.49;stroke-linecap:round;stroke-linejoin:round;}
	.st23{fill:#001820;stroke:#001820;stroke-width:3.5027;stroke-linecap:round;stroke-linejoin:round;}
	.st24{fill:#001820;stroke:#001820;stroke-width:3.3405;stroke-linecap:round;stroke-linejoin:round;}
	.st25{fill:#001820;stroke:#001820;stroke-width:6.5293;stroke-linecap:round;stroke-linejoin:round;}
	.st26{fill:#001820;stroke:#001820;stroke-width:5.3223;stroke-linecap:round;stroke-linejoin:round;}
	.st27{fill:#001820;stroke:#001820;stroke-width:4.0222;stroke-linecap:round;stroke-linejoin:round;}
	.st28{fill:#001820;stroke:#001820;stroke-width:5.6652;stroke-linecap:round;stroke-linejoin:round;}
	.st29{fill:#001820;stroke:#001820;stroke-width:4.7253;stroke-linecap:round;stroke-linejoin:round;}
	.st30{fill:#001820;stroke:#001820;stroke-width:3.6836;stroke-linecap:round;stroke-linejoin:round;}
	.st31{fill:#001820;stroke:#001820;stroke-width:3.1892;stroke-linecap:round;stroke-linejoin:round;}
	.st32{fill:#001820;stroke:#001820;stroke-width:0.9762;stroke-linecap:round;stroke-linejoin:round;}
	.st33{fill:#001820;stroke:#001820;stroke-width:2.2084;stroke-linecap:round;stroke-linejoin:round;}
</style>
<g id="layer2" transform="translate(0,312)" inkscape:groupmode="layer" inkscape:label="Robot">
	<g id="g3862" transform="matrix(1.1989209,0,0,1.1989209,356.1406,-258.93339)">
		<path id="path3799" inkscape:connector-curvature="0" sodipodi:nodetypes="ccsc" class="st0" d="M131.1,155
			c0,0,106.6-53.7,123.9-70.9c0,0-34-53.3-55.3-51.9C172.1,34.1,95.8,69,131.1,155L131.1,155z"/>
		<path id="path3801" inkscape:connector-curvature="0" sodipodi:nodetypes="csssc" class="st1" d="M133.5,152.6
			c58.7-3.7,135.5-46.9,140.1-44.7c12,5.7-4.5,85.6-10.8,91.8c-6,5.9-107.5,9.6-120.3,1.4C134,195.8,133.5,152.6,133.5,152.6
			L133.5,152.6z"/>
		
			<path id="path3803" sodipodi:cx="251.41574" sodipodi:cy="251.57344" sodipodi:rx="4.8420811" sodipodi:ry="3.9109116" sodipodi:type="arc" class="st2" d="
			M143.7,152.4c0.6,6.7-3.8,12.6-9.9,13.2c-6.1,0.6-11.5-4.3-12.2-11c0,0,0,0,0,0c-0.6-6.7,3.8-12.6,9.9-13.2
			C137.6,140.8,143,145.7,143.7,152.4C143.7,152.4,143.7,152.4,143.7,152.4z"/>
		
			<path id="path3805" inkscape:transform-center-y="-1.7286243" sodipodi:cx="325.9093" sodipodi:cy="194.39963" sodipodi:rx="7.8218231" sodipodi:ry="14.153775" sodipodi:type="arc" class="st3" d="
			M211.6,78.6c2.5,5.5,2.6,11.3,0.2,12.9c-2.4,1.6-6.4-1.6-8.9-7.1c-2.5-5.5-2.6-11.3-0.2-12.9C205.1,69.9,209.1,73.1,211.6,78.6z"
			/>
		
			<path id="path3807" sodipodi:cx="325.9093" sodipodi:cy="194.39963" sodipodi:rx="7.8218231" sodipodi:ry="14.153775" sodipodi:type="arc" class="st3" d="
			M228.8,68.6c2.7,5,2.9,10.5,0.7,12.1c-2.3,1.7-6.3-1.1-8.9-6.1s-2.9-10.5-0.7-12.1C222.1,60.8,226.1,63.5,228.8,68.6z"/>
		<path id="path3809" inkscape:connector-curvature="0" sodipodi:nodetypes="cccc" class="st0" d="M128.5,74.1L96.1,40.9L132,69.1
			L128.5,74.1z"/>
		<path id="path3811" inkscape:connector-curvature="0" sodipodi:nodetypes="ccccc" class="st0" d="M153.7,206.1l-7.5,30.5
			c0,0,18.5-6.8,45.9-10.6l-1.5-14.8C190.7,211.2,165.7,210.2,153.7,206.1L153.7,206.1z"/>
	</g>
	<path id="path3813" inkscape:connector-curvature="0" sodipodi:nodetypes="ccccccccccccccccccc" class="st4" d="M692.1,20.6
		C613.1,3.1,510.5,27,411.8,87.3c-11,59.7,3.8,119.4,17.7,152.5c24.2,16.9,63.3,42.4,82.4,44.3c88.8-4.3,172.4-46.3,172.4-46.3
		c20.3-6.6,45-48.8,59.8-77.8c-3.2-40.3-16.4-96.4-50.6-139.4C693,20.6,692.6,20.6,692.1,20.6L692.1,20.6z M701.7,20.7
		c24.2,32.4,41.1,82.7,46.6,131c5.6-11.4,9.1-19.4,9.1-19.4S741.7,29.6,709.1,20.9C706.6,20.8,704.1,20.8,701.7,20.7L701.7,20.7z
		 M405.2,90.6c-2.8,1.4-5.5,2.7-8.2,4.1c-15.7,46.3,11.8,130.1,11.8,130.1s5.1,3.9,13.1,9.6C405.6,189.8,398.6,134.8,405.2,90.6
		L405.2,90.6z"/>
	<path id="path3815" inkscape:connector-curvature="0" class="st4" d="M689.3,243.4c0,0-77.5,47.5-173.1,49.1
		c-0.3,3,1.5,8.9,4.7,16.5c37-1,107.2-13.1,168.2-49C689.3,254.4,689.4,248.9,689.3,243.4L689.3,243.4z M688.1,277.9
		c-73.3,36.6-128.2,44.9-160.4,45.9c2.2,4.5,4.7,9.3,7.3,14.3c35.5-1.8,96.1-12.9,151.5-42.3C687.1,289.9,687.7,284,688.1,277.9z
		 M684.2,313.5c-62.4,29.2-110.4,37.6-141.2,39.3c2.9,5.1,5.8,10.2,8.7,15.1c33.8-3.2,82.9-13.6,129.6-36.4
		C682.4,325.8,683.4,319.8,684.2,313.5L684.2,313.5z M678,349.3c-49.3,21.7-89,30.3-117.5,33.3c3.1,5,6,9.6,8.7,13.8
		c28.4-3.1,66.2-11.1,104.1-26.6C674.9,363.9,676.4,357,678,349.3L678,349.3z M667.7,387.7c-35.7,13.7-65.5,20.1-88.6,23
		c2.3,3,4.1,5,5,5.4c8.6,4.1,76.9-18.8,82.6-26.6C667,389.2,667.4,388.5,667.7,387.7L667.7,387.7z"/>
	<path id="path3829" inkscape:connector-curvature="0" class="st4" d="M677.3,379.3c-32.8,22-104.8,29.1-104.8,29.1
		s-8.5,17.4-3.6,33.9c20.3,6,47,41.9,65.8,70.8c10.4,6.1,25.4-5.3,25.4-5.3c4-27.1,13.2-64.9,34.2-107.1
		C694,389,677.3,379.3,677.3,379.3L677.3,379.3z M643.5,412.7c9.3,0,16.9,7.6,16.9,16.9c0,9.3-7.5,16.9-16.9,16.9
		s-16.9-7.6-16.9-16.9C626.6,420.3,634.1,412.7,643.5,412.7z"/>
	
		<path id="path3838" sodipodi:cx="83.226341" sodipodi:cy="213.86008" sodipodi:rx="33.711933" sodipodi:ry="30.551441" sodipodi:type="arc" class="st5" d="
		M655.4,429.7c0,6.5-5.2,11.8-11.7,11.8c-6.5,0-11.7-5.3-11.7-11.8c0,0,0,0,0,0c0-6.5,5.2-11.8,11.7-11.8
		C650.2,417.9,655.4,423.2,655.4,429.7C655.4,429.7,655.4,429.7,655.4,429.7z"/>
	<path id="path3851" inkscape:connector-curvature="0" sodipodi:nodetypes="acca" class="st5" d="M342.4,161.3
		c2,32.7,29.4,63.2,68,63.2c-7.7-35.8-22.9-71.8-13.8-129.7C354.2,88.4,340.6,131.5,342.4,161.3L342.4,161.3z"/>
	<path id="path3856" inkscape:connector-curvature="0" sodipodi:nodetypes="sccs" class="st5" d="M766,19.8
		c29.2,21.3,24.1,100-10.8,113.3c-8.5-37.9-18.2-65.7-44.8-110.8C729.8,7.1,742.3,2.5,766,19.8z"/>
	<path id="path3932" inkscape:connector-curvature="0" sodipodi:nodetypes="ccccc" class="st4" d="M566.8,452.4
		c25,9.1,62,68.3,62,68.3s-31.7,94.7-27.4,142.1l-82-15.2C515.5,596.7,566.8,452.4,566.8,452.4z"/>
	<path id="path3934" inkscape:connector-curvature="0" sodipodi:nodetypes="ccccc" class="st4" d="M700.6,408.8
		c-13.6,21.2-31.1,78.1-31.8,96.7c14.4,9,53.6,107.8,49.4,155.1l71.8-6.9C794,602.8,718.6,417.8,700.6,408.8L700.6,408.8z"/>
	<path id="path3940" inkscape:connector-curvature="0" sodipodi:nodetypes="ccccc" class="st6" d="M366.9,140.7
		c-25.5,19.3-69.4,101.9-69.4,101.9l27.2,25.7c0,0,65-72.9,63.3-96.5L366.9,140.7z"/>
	
		<path id="path3942" sodipodi:cx="-80" sodipodi:cy="516.5" sodipodi:rx="21" sodipodi:ry="21.5" sodipodi:type="arc" class="st7" d="
		M333.6,273.4c0,20.9-14.9,37.8-33.4,37.8c-18.4,0-33.4-16.9-33.4-37.8c0-20.9,14.9-37.8,33.4-37.8
		C318.7,235.6,333.6,252.5,333.6,273.4z"/>
	<path id="path3944" inkscape:connector-curvature="0" sodipodi:nodetypes="ccccc" class="st8" d="M286.4,257.9
		c-14.7,23.9-51,158.5-51,158.5s25.1-6.7,35.7,22.4c4.4-6.1,38.6-116.9,42.7-156.2L286.4,257.9z"/>
	<path id="path3946" inkscape:connector-curvature="0" class="st9" d="M238.8,424.4c-16.1,0-29.2,14.8-29.2,33.1
		c0,18.3,13.1,33.1,29.2,33.1s29.2-14.8,29.2-33.1C267.9,439.2,254.9,424.4,238.8,424.4L238.8,424.4z M238.5,436.6
		c11,0,20,9.7,20,21.6s-9,21.6-20,21.6s-20-9.7-20-21.6S227.5,436.6,238.5,436.6z"/>
	
		<path id="rect3948" inkscape:connector-curvature="0" inkscape:transform-center-x="-1.3824849" inkscape:transform-center-y="7.6819288" sodipodi:nodetypes="ccccc" class="st5" d="
		M203.5,455.7c0.8,6.1-0.7,13,4,19.8l-20.7,26.7c-6.2-2.5-9.9-14.4-9.9-14.4L203.5,455.7z"/>
	
		<path id="path3954" inkscape:connector-curvature="0" inkscape:transform-center-x="-1.3824849" inkscape:transform-center-y="7.6819288" sodipodi:nodetypes="ccccc" class="st5" d="
		M208.7,478.4c3.1,5.4,3.9,8.3,8.9,12.6L193,526.7c-6.2-2.5-9.9-14.4-9.9-14.4L208.7,478.4z"/>
	
		<path id="path3956" inkscape:connector-curvature="0" inkscape:transform-center-x="-1.3824849" inkscape:transform-center-y="7.6819288" sodipodi:nodetypes="ccccc" class="st5" d="
		M220.1,491.8c4.7,5,9.1,5,13.8,7.5l-25.3,38.3c-6.2-2.5-10.6-11.1-10.6-11.1L220.1,491.8z"/>
	
		<path id="path3958" inkscape:connector-curvature="0" inkscape:transform-center-x="-5.9702654" inkscape:transform-center-y="3.2323669" sodipodi:nodetypes="ccccc" class="st5" d="
		M248,495c6.5-0.8,11.3-6.9,16-9.3l6.8,37.6c-4.3,9.7-13.7,7.1-14,5.9L248,495z"/>
	
		<path id="path3986" sodipodi:cx="393.48148" sodipodi:cy="411.91769" sodipodi:rx="13.168724" sodipodi:ry="13.695474" sodipodi:type="arc" class="st10" d="
		M720.5,110.1c1.3,4.8-1,9.8-5.2,11.1s-8.6-1.4-9.9-6.2c-1.3-4.8,1-9.8,5.2-11.1C714.8,102.6,719.2,105.4,720.5,110.1z"/>
	
		<path id="path3988" sodipodi:cx="393.48148" sodipodi:cy="411.91769" sodipodi:rx="13.168724" sodipodi:ry="13.695474" sodipodi:type="arc" class="st10" d="
		M724.7,132.5c1,3.7-0.8,7.6-4.1,8.7c-3.2,1.1-6.7-1.1-7.7-4.8s0.8-7.6,4.1-8.7S723.7,128.8,724.7,132.5z"/>
	
		<path id="path3990" sodipodi:cx="393.48148" sodipodi:cy="411.91769" sodipodi:rx="13.168724" sodipodi:ry="13.695474" sodipodi:type="arc" class="st10" d="
		M728.9,152.7c0.8,3-0.6,6.1-3.3,7c-2.6,0.9-5.4-0.9-6.2-3.9c-0.8-3,0.6-6.1,3.3-7C725.3,148,728.1,149.7,728.9,152.7z"/>
	<path id="path3992" inkscape:connector-curvature="0" sodipodi:nodetypes="ccccc" class="st11" d="M760.5,61.1
		c30.6-12.8,94.6-85.4,94.6-85.4l-22.3-33.8c0,0-83.5,57-87,81.6L760.5,61.1z"/>
	
		<path id="path3994" sodipodi:cx="-80" sodipodi:cy="516.5" sodipodi:rx="21" sodipodi:ry="21.5" sodipodi:type="arc" class="st7" d="
		M825.7-59.8c4.2-20.4,22.1-33.3,40.1-28.8c18,4.5,29.2,24.7,25,45.1c-4.2,20.4-22.1,33.3-40.1,28.8
		C832.7-19.2,821.5-39.4,825.7-59.8z"/>
	<path id="path3996" inkscape:connector-curvature="0" sodipodi:nodetypes="ccccc" class="st12" d="M876.1-44.5
		c24.6-15.2,118.9-128.7,119.6-135c-8-0.6-22,3.9-24.4-22.6c-6.9,3.6-90.3,84.2-111.2,119.7L876.1-44.5z"/>
	<path id="path3998" inkscape:connector-curvature="0" sodipodi:nodetypes="ssssssssss" class="st13" d="M1012.9-250
		c-18.7,0-33.8,16.6-33.8,37.1s2.5,26.2,21.1,26.2c18.7,0,33.8-16.6,33.8-37.1S1031.5-250,1012.9-250z M1012.6-236.3
		c12.8,0,10.5,0,10.5,13.3c0,13.4-10.4,24.2-23.1,24.2c-12.8,0-10.4,0-10.4-13.3C989.5-225.5,999.9-236.3,1012.6-236.3z"/>
	
		<path id="path4000" inkscape:connector-curvature="0" inkscape:transform-center-x="-8.2513151" inkscape:transform-center-y="-0.5476772" sodipodi:nodetypes="ccccc" class="st5" d="
		M1003.9-256.1c6.4-0.4,11.7-4,21.2,0.5l22.6-31.1c-4-7-17-8.8-17-8.8L1003.9-256.1z"/>
	
		<path id="path4002" inkscape:connector-curvature="0" inkscape:transform-center-x="0.2330699" inkscape:transform-center-y="-7.8643538" sodipodi:nodetypes="ccccc" class="st14" d="
		M1032.1-250.4c1.6-1.1-6.2-6.2-14.6-6.5l40.3-43.1c6.7,4,8.9,17.9,8.9,17.9L1032.1-250.4z"/>
	
		<path id="path4004" inkscape:connector-curvature="0" inkscape:transform-center-x="-7.6782251" inkscape:transform-center-y="1.4996423" sodipodi:nodetypes="ccccc" class="st14" d="
		M1030.6-252.5c6,3.5,5.8,7.1,8.1,15.1l45.7-35.4c-2.5-7.7-11.4-13.3-11.4-13.3L1030.6-252.5z"/>
	
		<path id="path4006" inkscape:connector-curvature="0" inkscape:transform-center-x="-7.2953862" inkscape:transform-center-y="-3.9922216" sodipodi:nodetypes="ccccc" class="st5" d="
		M1027-190.3c5.1-5.9,7.8-7.2,8.9-13.6c0,0,15,4.9,31.6-1.7c5.6,10.4-3.6,16.5-4.8,16C1050.3-185.8,1027-190.3,1027-190.3z"/>
</g>
<sodipodi:namedview  bordercolor="#666666" borderlayer="true" borderopacity="1.0" id="base" inkscape:current-layer="layer1" inkscape:cx="1574.0466" inkscape:cy="371.80025" inkscape:document-units="px" inkscape:guide-bbox="true" inkscape:pageopacity="0.0" inkscape:pageshadow="2" inkscape:window-height="876" inkscape:window-maximized="1" inkscape:window-width="1551" inkscape:window-x="49" inkscape:window-y="24" inkscape:zoom="0.21176375" pagecolor="#ffffff" showgrid="false" showguides="true" width="1024px">
	</sodipodi:namedview>
<text transform="matrix(0.8743 -0.2467 0.4359 0.9 511.5079 474.4735)" class="st10 st15 st16">CSS</text>
<path class="st4" d="M2640.8,1319H-140.5c-6.6,0-12-5.4-12-12v-267c0-6.6,5.4-12,12-12h2781.3c6.6,0,12,5.4,12,12v267
	C2652.8,1313.6,2647.4,1319,2640.8,1319z"/>
<g id="layer3" inkscape:groupmode="layer" inkscape:label="City">
	<rect id="rect3871" x="311.7" y="878.6" class="st17" width="126.3" height="256.4"/>
	<rect id="rect3873" x="465.8" y="807.9" class="st17" width="126.3" height="256.4"/>
	<polygon id="rect3875" class="st18" points="610.7,941.6 691.1,885.8 691.1,1142.9 597,1142.9 	"/>
	<rect id="rect3877" x="556" y="976.3" class="st19" width="95" height="157.2"/>
	<rect id="rect3879" x="400.8" y="944.9" class="st20" width="94.7" height="191.7"/>
	<polygon id="rect3881" class="st18" points="800.3,874.4 871.3,894.4 894.4,1131.5 800.3,1131.5 	"/>
	<rect id="rect3883" x="682.9" y="946.6" class="st21" width="134.3" height="199.3"/>
	<rect id="rect3885" x="927.8" y="782.3" class="st18" width="94.1" height="257.1"/>
	<rect id="rect3887" x="871.9" y="962.6" class="st22" width="94.8" height="181"/>
	<rect id="rect3889" x="1058.8" y="846.6" class="st23" width="78.3" height="220.5"/>
	<rect id="rect3891" x="996.9" y="977.6" class="st24" width="94.9" height="165.5"/>
	<rect id="rect3893" x="1200.5" y="887" class="st25" width="235.7" height="254.7"/>
	<rect id="rect3895" x="1095.1" y="974.9" class="st26" width="236.9" height="168.4"/>
	<rect id="rect3897" x="1480.5" y="809.1" class="st18" width="94.1" height="257.1"/>
	<rect id="rect3899" x="1420.3" y="962.7" class="st27" width="137.2" height="166.1"/>
	
		<path id="path3901" inkscape:connector-curvature="0" inkscape:transform-center-x="-0.080682564" inkscape:transform-center-y="-6.2013486" sodipodi:nodetypes="ccccc" class="st28" d="
		M1135.7,844.4l-37.6,0.1l-37.6,0.1c8.9-19.2,27.6-86.4,37.3-105C1108.6,759.1,1127.5,824.4,1135.7,844.4L1135.7,844.4z"/>
	<g id="g3914" transform="matrix(1.2057863,0,0,1.1989209,354.93848,65.05582)">
		
			<path id="path3903" inkscape:connector-curvature="0" inkscape:transform-center-x="-0.080682564" inkscape:transform-center-y="-6.2013486" sodipodi:nodetypes="ccccc" class="st29" d="
			M732.8,684.7l-31.4,0.1l15.6-18.8l15.6-18.8C732.5,647.2,732.6,684.2,732.8,684.7L732.8,684.7z"/>
		
			<path id="path3906" inkscape:connector-curvature="0" inkscape:transform-center-x="-0.080682564" inkscape:transform-center-y="-6.2013486" sodipodi:nodetypes="ccccc" class="st29" d="
			M773.8,684.7l-31.4,0.1L758,666l15.6-18.8C773.6,647.2,773.7,684.2,773.8,684.7L773.8,684.7z"/>
		
			<path id="path3908" inkscape:connector-curvature="0" inkscape:transform-center-x="-0.080682564" inkscape:transform-center-y="-6.2013486" sodipodi:nodetypes="ccccc" class="st29" d="
			M814.9,684.7l-31.4,0.1l15.6-18.8l15.6-18.8C814.6,647.2,814.7,684.2,814.9,684.7L814.9,684.7z"/>
		
			<path id="path3910" inkscape:connector-curvature="0" inkscape:transform-center-x="-0.080682564" inkscape:transform-center-y="-6.2013486" sodipodi:nodetypes="ccccc" class="st29" d="
			M856,684.7l-31.4,0.1l15.6-18.8l15.6-18.8C855.7,647.2,855.8,684.2,856,684.7L856,684.7z"/>
		
			<path id="path3912" inkscape:connector-curvature="0" inkscape:transform-center-x="-0.080682564" inkscape:transform-center-y="-6.2013486" sodipodi:nodetypes="ccccc" class="st29" d="
			M897,684.7l-31.4,0.1l15.6-18.8l15.6-18.8C896.8,647.2,896.9,684.2,897,684.7L897,684.7z"/>
	</g>
	<rect id="rect3922" x="937.7" y="639.4" class="st30" width="74.2" height="257.5"/>
	<rect id="rect3924" x="947.1" y="509.6" class="st31" width="55.5" height="258"/>
	<polygon id="rect3926" class="st32" points="978.1,496.8 981.9,384.7 976.8,609.3 972.9,609.3 	"/>
	<rect id="rect3928" x="1385.1" y="667.7" class="st33" width="26.5" height="259"/>
	<rect id="rect3930" x="1331.2" y="667.7" class="st33" width="26.5" height="259"/>
	
		<rect id="rect3998" x="1455.6" y="1087.5" transform="matrix(0.2248 -0.9744 0.9744 0.2248 122.4781 2423.1191)" class="st18" width="257.1" height="94.1"/>
	
		<rect id="rect4000" x="271.6" y="1010.2" transform="matrix(0.9744 -0.2248 0.2248 0.9744 -247.8229 100.7697)" class="st18" width="94.1" height="257.1"/>
</g>
</svg>
